<svg width="60" height="60" viewBox="0 0 60 60" fill="none" xmlns="http://www.w3.org/2000/svg">
<mask id="path-1-inside-1_29_10" fill="white">
<path d="M0 16C0 7.16344 7.16345 0 16 0H44C52.8366 0 60 7.16345 60 16V44C60 52.8366 52.8366 60 44 60H16C7.16344 60 0 52.8366 0 44V16Z"/>
</mask>
<path d="M0 16C0 7.16344 7.16345 0 16 0H44C52.8366 0 60 7.16345 60 16V44C60 52.8366 52.8366 60 44 60H16C7.16344 60 0 52.8366 0 44V16Z" fill="url(#paint0_radial_29_10)" fill-opacity="0.35"/>
<path d="M0 0H60H0ZM60 44C60 53.9411 51.9411 62 42 62H18C8.05887 62 0 53.9411 0 44C0 51.732 7.16344 58 16 58H44C52.8366 58 60 51.732 60 44ZM0 60V0V60ZM60 0V60V0Z" fill="url(#paint1_linear_29_10)" mask="url(#path-1-inside-1_29_10)"/>
<defs>
<radialGradient id="paint0_radial_29_10" cx="0" cy="0" r="1" gradientUnits="userSpaceOnUse" gradientTransform="translate(13 13) rotate(45) scale(66.468 66.468)">
<stop stop-color="#00FF94"/>
<stop offset="1" stop-color="#07609F" stop-opacity="0.79"/>
</radialGradient>
<linearGradient id="paint1_linear_29_10" x1="44.9112" y1="13" x2="-5.32558" y2="19.6267" gradientUnits="userSpaceOnUse">
<stop stop-color="#07609F" stop-opacity="0.37"/>
<stop offset="1" stop-color="#079F69" stop-opacity="0.45"/>
</linearGradient>
</defs>

</svg>
