<svg width="805" height="635" viewBox="0 0 805 635" fill="none" xmlns="http://www.w3.org/2000/svg">
<rect x="81" width="724" height="555" rx="64" fill="#111826"/>
<rect x="17" y="64" width="724" height="555" rx="32" fill="#0B0C13"/>
<path d="M0.75 587C0.75 574.159 11.1594 563.75 24 563.75H399C411.841 563.75 422.25 574.159 422.25 587V611C422.25 623.841 411.841 634.25 399 634.25H24C11.1594 634.25 0.75 623.841 0.75 611V587Z" fill="url(#paint0_linear_46_5)" fill-opacity="0.7" stroke="url(#paint1_linear_46_5)" stroke-width="1.5"/>
<path d="M85.4347 606V591.455H91.0028C92.054 591.455 92.9276 591.62 93.6236 591.952C94.3243 592.278 94.8475 592.726 95.1932 593.294C95.5436 593.862 95.7188 594.506 95.7188 595.226C95.7188 595.818 95.6051 596.324 95.3778 596.746C95.1506 597.162 94.8452 597.501 94.4616 597.761C94.0781 598.022 93.6496 598.209 93.1761 598.322V598.464C93.6922 598.493 94.187 598.652 94.6605 598.94C95.1387 599.224 95.5294 599.627 95.8324 600.148C96.1354 600.669 96.2869 601.298 96.2869 602.037C96.2869 602.79 96.1046 603.467 95.7401 604.068C95.3755 604.665 94.8262 605.136 94.0923 605.482C93.3584 605.827 92.4351 606 91.3224 606H85.4347ZM88.0696 603.798H90.9034C91.8598 603.798 92.5488 603.616 92.9702 603.251C93.3963 602.882 93.6094 602.409 93.6094 601.831C93.6094 601.4 93.5028 601.012 93.2898 600.666C93.0767 600.316 92.7737 600.041 92.3807 599.842C91.9877 599.639 91.5189 599.537 90.9744 599.537H88.0696V603.798ZM88.0696 597.641H90.6761C91.1307 597.641 91.5402 597.558 91.9048 597.392C92.2694 597.222 92.5559 596.982 92.7642 596.675C92.9773 596.362 93.0838 595.993 93.0838 595.567C93.0838 595.003 92.8849 594.539 92.4872 594.175C92.0942 593.81 91.5095 593.628 90.733 593.628H88.0696V597.641ZM101.605 606.22C100.913 606.22 100.291 606.097 99.7369 605.851C99.1876 605.6 98.752 605.231 98.43 604.743C98.1128 604.255 97.9542 603.654 97.9542 602.939C97.9542 602.323 98.0678 601.814 98.2951 601.412C98.5224 601.009 98.8325 600.688 99.2255 600.446C99.6185 600.205 100.061 600.022 100.554 599.899C101.051 599.771 101.565 599.679 102.095 599.622C102.734 599.556 103.252 599.497 103.65 599.445C104.048 599.388 104.337 599.303 104.517 599.189C104.701 599.071 104.794 598.888 104.794 598.642V598.599C104.794 598.064 104.635 597.65 104.318 597.357C104.001 597.063 103.544 596.916 102.947 596.916C102.317 596.916 101.818 597.054 101.449 597.328C101.084 597.603 100.838 597.927 100.71 598.301L98.3093 597.96C98.4987 597.297 98.8112 596.743 99.2468 596.298C99.6824 595.848 100.215 595.512 100.845 595.29C101.475 595.062 102.171 594.949 102.933 594.949C103.458 594.949 103.982 595.01 104.502 595.134C105.023 595.257 105.499 595.46 105.93 595.744C106.361 596.024 106.707 596.405 106.967 596.888C107.232 597.371 107.365 597.974 107.365 598.699V606H104.893V604.501H104.808C104.652 604.804 104.431 605.089 104.147 605.354C103.868 605.614 103.515 605.825 103.089 605.986C102.668 606.142 102.173 606.22 101.605 606.22ZM102.272 604.331C102.788 604.331 103.236 604.229 103.615 604.026C103.993 603.817 104.285 603.543 104.488 603.202C104.697 602.861 104.801 602.489 104.801 602.087V600.801C104.72 600.867 104.583 600.929 104.389 600.986C104.199 601.043 103.986 601.092 103.75 601.135C103.513 601.178 103.279 601.215 103.047 601.249C102.815 601.282 102.613 601.31 102.443 601.334C102.059 601.386 101.716 601.471 101.413 601.589C101.11 601.708 100.871 601.874 100.696 602.087C100.52 602.295 100.433 602.565 100.433 602.896C100.433 603.37 100.606 603.727 100.951 603.969C101.297 604.21 101.737 604.331 102.272 604.331ZM112.521 599.608V606H109.95V595.091H112.407V596.945H112.535C112.786 596.334 113.186 595.848 113.735 595.489C114.289 595.129 114.974 594.949 115.788 594.949C116.541 594.949 117.197 595.11 117.755 595.432C118.319 595.754 118.754 596.22 119.062 596.831C119.375 597.442 119.529 598.183 119.524 599.054V606H116.953V599.452C116.953 598.723 116.763 598.152 116.385 597.74C116.011 597.328 115.492 597.122 114.829 597.122C114.379 597.122 113.979 597.222 113.629 597.42C113.283 597.615 113.011 597.896 112.812 598.266C112.618 598.635 112.521 599.082 112.521 599.608ZM124.708 599.608V606H122.137V595.091H124.595V596.945H124.723C124.974 596.334 125.374 595.848 125.923 595.489C126.477 595.129 127.161 594.949 127.975 594.949C128.728 594.949 129.384 595.11 129.943 595.432C130.506 595.754 130.942 596.22 131.25 596.831C131.562 597.442 131.716 598.183 131.711 599.054V606H129.14V599.452C129.14 598.723 128.951 598.152 128.572 597.74C128.198 597.328 127.68 597.122 127.017 597.122C126.567 597.122 126.167 597.222 125.816 597.42C125.471 597.615 125.199 597.896 125 598.266C124.806 598.635 124.708 599.082 124.708 599.608ZM139.154 606.213C138.061 606.213 137.116 605.986 136.321 605.531C135.53 605.072 134.922 604.423 134.495 603.585C134.069 602.742 133.856 601.75 133.856 600.609C133.856 599.487 134.069 598.502 134.495 597.655C134.926 596.803 135.528 596.14 136.299 595.666C137.071 595.188 137.978 594.949 139.02 594.949C139.692 594.949 140.326 595.058 140.923 595.276C141.524 595.489 142.055 595.82 142.514 596.27C142.978 596.72 143.342 597.293 143.608 597.989C143.873 598.68 144.005 599.504 144.005 600.46V601.249H135.064V599.516H141.541C141.536 599.023 141.43 598.585 141.221 598.202C141.013 597.813 140.722 597.508 140.348 597.286C139.978 597.063 139.547 596.952 139.055 596.952C138.529 596.952 138.068 597.08 137.67 597.335C137.272 597.586 136.962 597.918 136.74 598.33C136.522 598.737 136.411 599.184 136.406 599.672V601.185C136.406 601.819 136.522 602.364 136.754 602.818C136.986 603.268 137.31 603.614 137.727 603.855C138.144 604.092 138.631 604.21 139.19 604.21C139.564 604.21 139.903 604.158 140.206 604.054C140.509 603.945 140.771 603.786 140.994 603.578C141.217 603.37 141.385 603.112 141.498 602.804L143.899 603.074C143.747 603.708 143.458 604.262 143.032 604.736C142.611 605.205 142.071 605.569 141.413 605.83C140.755 606.085 140.002 606.213 139.154 606.213ZM150.229 606.192C149.372 606.192 148.605 605.972 147.928 605.531C147.25 605.091 146.715 604.452 146.322 603.614C145.929 602.776 145.733 601.758 145.733 600.56C145.733 599.348 145.932 598.325 146.33 597.491C146.732 596.653 147.274 596.021 147.956 595.595C148.638 595.164 149.398 594.949 150.236 594.949C150.875 594.949 151.401 595.058 151.812 595.276C152.224 595.489 152.551 595.747 152.793 596.05C153.034 596.348 153.221 596.63 153.354 596.895H153.46V591.455H156.038V606H153.51V604.281H153.354C153.221 604.546 153.029 604.828 152.778 605.126C152.527 605.42 152.196 605.671 151.784 605.879C151.372 606.088 150.854 606.192 150.229 606.192ZM150.946 604.082C151.491 604.082 151.955 603.936 152.338 603.642C152.722 603.344 153.013 602.929 153.212 602.399C153.411 601.869 153.51 601.251 153.51 600.545C153.51 599.84 153.411 599.227 153.212 598.706C153.018 598.185 152.729 597.78 152.345 597.491C151.966 597.203 151.5 597.058 150.946 597.058C150.373 597.058 149.895 597.207 149.511 597.506C149.128 597.804 148.839 598.216 148.645 598.741C148.451 599.267 148.354 599.868 148.354 600.545C148.354 601.227 148.451 601.836 148.645 602.371C148.844 602.901 149.135 603.32 149.518 603.628C149.907 603.931 150.383 604.082 150.946 604.082ZM163.711 606V604.097L168.76 599.146C169.243 598.659 169.646 598.225 169.968 597.847C170.29 597.468 170.531 597.101 170.692 596.746C170.853 596.391 170.934 596.012 170.934 595.609C170.934 595.15 170.829 594.757 170.621 594.43C170.413 594.099 170.126 593.843 169.762 593.663C169.397 593.483 168.983 593.393 168.519 593.393C168.041 593.393 167.622 593.493 167.262 593.692C166.902 593.886 166.623 594.163 166.424 594.523C166.23 594.883 166.132 595.311 166.132 595.808H163.625C163.625 594.885 163.836 594.082 164.257 593.401C164.679 592.719 165.259 592.191 165.998 591.817C166.741 591.443 167.593 591.256 168.554 591.256C169.53 591.256 170.387 591.438 171.125 591.803C171.864 592.167 172.437 592.667 172.844 593.301C173.256 593.936 173.462 594.66 173.462 595.474C173.462 596.019 173.358 596.554 173.15 597.08C172.941 597.605 172.574 598.187 172.049 598.827C171.528 599.466 170.796 600.24 169.854 601.149L167.347 603.699V603.798H173.682V606H163.711ZM181.353 606.199C180.33 606.199 179.421 606.024 178.625 605.673C177.835 605.323 177.21 604.835 176.75 604.21C176.291 603.585 176.047 602.863 176.019 602.044H178.689C178.713 602.437 178.843 602.78 179.08 603.074C179.317 603.363 179.632 603.588 180.025 603.749C180.417 603.91 180.858 603.99 181.346 603.99C181.866 603.99 182.328 603.9 182.73 603.72C183.133 603.536 183.448 603.28 183.675 602.953C183.902 602.626 184.014 602.25 184.009 601.824C184.014 601.384 183.9 600.995 183.668 600.659C183.436 600.323 183.1 600.06 182.659 599.871C182.224 599.681 181.698 599.587 181.083 599.587H179.797V597.555H181.083C181.589 597.555 182.032 597.468 182.411 597.293C182.794 597.117 183.095 596.871 183.313 596.554C183.531 596.232 183.637 595.86 183.632 595.439C183.637 595.027 183.545 594.67 183.355 594.366C183.171 594.059 182.908 593.82 182.567 593.649C182.231 593.479 181.836 593.393 181.381 593.393C180.936 593.393 180.524 593.474 180.145 593.635C179.766 593.796 179.461 594.026 179.229 594.324C178.997 594.617 178.874 594.968 178.86 595.375H176.324C176.343 594.561 176.578 593.846 177.027 593.23C177.482 592.61 178.088 592.127 178.846 591.781C179.603 591.431 180.453 591.256 181.395 591.256C182.366 591.256 183.209 591.438 183.924 591.803C184.643 592.162 185.2 592.648 185.593 593.259C185.986 593.869 186.182 594.544 186.182 595.283C186.187 596.102 185.945 596.788 185.458 597.342C184.975 597.896 184.34 598.259 183.554 598.429V598.543C184.577 598.685 185.361 599.063 185.905 599.679C186.454 600.29 186.727 601.05 186.722 601.959C186.722 602.773 186.49 603.502 186.026 604.146C185.567 604.786 184.932 605.287 184.123 605.652C183.318 606.017 182.394 606.199 181.353 606.199ZM202.771 597.974L200.428 598.23C200.361 597.993 200.245 597.771 200.08 597.562C199.919 597.354 199.701 597.186 199.426 597.058C199.152 596.93 198.815 596.866 198.418 596.866C197.883 596.866 197.433 596.982 197.068 597.214C196.708 597.446 196.531 597.747 196.536 598.116C196.531 598.434 196.647 598.692 196.884 598.891C197.125 599.089 197.523 599.253 198.077 599.381L199.938 599.778C200.97 600.001 201.737 600.354 202.239 600.837C202.745 601.32 203.001 601.952 203.006 602.733C203.001 603.42 202.8 604.026 202.402 604.551C202.009 605.072 201.462 605.479 200.761 605.773C200.061 606.066 199.256 606.213 198.347 606.213C197.011 606.213 195.937 605.934 195.122 605.375C194.308 604.812 193.822 604.028 193.666 603.024L196.173 602.783C196.287 603.275 196.528 603.647 196.898 603.898C197.267 604.149 197.748 604.274 198.339 604.274C198.95 604.274 199.44 604.149 199.81 603.898C200.184 603.647 200.371 603.337 200.371 602.967C200.371 602.655 200.25 602.397 200.009 602.193C199.772 601.99 199.402 601.833 198.901 601.724L197.04 601.334C195.993 601.116 195.219 600.749 194.717 600.233C194.215 599.712 193.967 599.054 193.972 598.259C193.967 597.586 194.149 597.004 194.518 596.511C194.893 596.014 195.411 595.631 196.074 595.361C196.741 595.086 197.511 594.949 198.382 594.949C199.661 594.949 200.667 595.221 201.401 595.766C202.139 596.31 202.596 597.046 202.771 597.974ZM212.079 601.412V595.091H214.65V606H212.157V604.061H212.043C211.797 604.672 211.392 605.171 210.829 605.56C210.27 605.948 209.581 606.142 208.762 606.142C208.047 606.142 207.415 605.983 206.866 605.666C206.321 605.344 205.895 604.878 205.587 604.267C205.28 603.652 205.126 602.908 205.126 602.037V595.091H207.697V601.639C207.697 602.33 207.886 602.88 208.265 603.287C208.644 603.694 209.141 603.898 209.756 603.898C210.135 603.898 210.502 603.805 210.857 603.621C211.212 603.436 211.504 603.161 211.731 602.797C211.963 602.428 212.079 601.966 212.079 601.412ZM225.916 597.974L223.572 598.23C223.506 597.993 223.39 597.771 223.224 597.562C223.063 597.354 222.845 597.186 222.571 597.058C222.296 596.93 221.96 596.866 221.562 596.866C221.027 596.866 220.577 596.982 220.213 597.214C219.853 597.446 219.675 597.747 219.68 598.116C219.675 598.434 219.791 598.692 220.028 598.891C220.27 599.089 220.667 599.253 221.221 599.381L223.082 599.778C224.114 600.001 224.881 600.354 225.383 600.837C225.89 601.32 226.145 601.952 226.15 602.733C226.145 603.42 225.944 604.026 225.547 604.551C225.154 605.072 224.607 605.479 223.906 605.773C223.205 606.066 222.4 606.213 221.491 606.213C220.156 606.213 219.081 605.934 218.267 605.375C217.452 604.812 216.967 604.028 216.811 603.024L219.318 602.783C219.431 603.275 219.673 603.647 220.042 603.898C220.412 604.149 220.892 604.274 221.484 604.274C222.095 604.274 222.585 604.149 222.954 603.898C223.328 603.647 223.515 603.337 223.515 602.967C223.515 602.655 223.395 602.397 223.153 602.193C222.916 601.99 222.547 601.833 222.045 601.724L220.184 601.334C219.138 601.116 218.364 600.749 217.862 600.233C217.36 599.712 217.111 599.054 217.116 598.259C217.111 597.586 217.294 597.004 217.663 596.511C218.037 596.014 218.556 595.631 219.218 595.361C219.886 595.086 220.655 594.949 221.527 594.949C222.805 594.949 223.811 595.221 224.545 595.766C225.284 596.31 225.741 597.046 225.916 597.974ZM228.27 610.091V595.091H230.799V596.895H230.948C231.08 596.63 231.267 596.348 231.509 596.05C231.75 595.747 232.077 595.489 232.489 595.276C232.901 595.058 233.426 594.949 234.066 594.949C234.908 594.949 235.668 595.164 236.346 595.595C237.027 596.021 237.567 596.653 237.965 597.491C238.367 598.325 238.569 599.348 238.569 600.56C238.569 601.758 238.372 602.776 237.979 603.614C237.586 604.452 237.051 605.091 236.374 605.531C235.697 605.972 234.93 606.192 234.073 606.192C233.448 606.192 232.929 606.088 232.517 605.879C232.105 605.671 231.774 605.42 231.523 605.126C231.277 604.828 231.085 604.546 230.948 604.281H230.841V610.091H228.27ZM230.792 600.545C230.792 601.251 230.891 601.869 231.09 602.399C231.293 602.929 231.585 603.344 231.963 603.642C232.347 603.936 232.811 604.082 233.355 604.082C233.924 604.082 234.4 603.931 234.783 603.628C235.167 603.32 235.455 602.901 235.65 602.371C235.848 601.836 235.948 601.227 235.948 600.545C235.948 599.868 235.851 599.267 235.657 598.741C235.462 598.216 235.174 597.804 234.79 597.506C234.407 597.207 233.928 597.058 233.355 597.058C232.806 597.058 232.34 597.203 231.956 597.491C231.573 597.78 231.282 598.185 231.083 598.706C230.889 599.227 230.792 599.84 230.792 600.545ZM240.77 606V595.091H243.341V606H240.77ZM242.063 593.543C241.656 593.543 241.305 593.408 241.012 593.138C240.718 592.863 240.571 592.534 240.571 592.151C240.571 591.762 240.718 591.433 241.012 591.163C241.305 590.889 241.656 590.751 242.063 590.751C242.475 590.751 242.825 590.889 243.114 591.163C243.408 591.433 243.554 591.762 243.554 592.151C243.554 592.534 243.408 592.863 243.114 593.138C242.825 593.408 242.475 593.543 242.063 593.543ZM250.744 606.213C249.655 606.213 248.719 605.974 247.938 605.496C247.162 605.018 246.563 604.357 246.141 603.514C245.725 602.667 245.516 601.691 245.516 600.588C245.516 599.48 245.729 598.502 246.156 597.655C246.582 596.803 247.183 596.14 247.96 595.666C248.741 595.188 249.664 594.949 250.729 594.949C251.615 594.949 252.398 595.112 253.08 595.439C253.767 595.761 254.314 596.218 254.721 596.81C255.128 597.397 255.36 598.083 255.417 598.869H252.96C252.86 598.344 252.623 597.906 252.249 597.555C251.88 597.2 251.385 597.023 250.765 597.023C250.239 597.023 249.778 597.165 249.38 597.449C248.982 597.728 248.672 598.131 248.45 598.656C248.232 599.182 248.123 599.812 248.123 600.545C248.123 601.289 248.232 601.928 248.45 602.463C248.667 602.993 248.973 603.403 249.366 603.692C249.763 603.976 250.23 604.118 250.765 604.118C251.144 604.118 251.482 604.047 251.781 603.905C252.084 603.758 252.337 603.547 252.54 603.273C252.744 602.998 252.884 602.664 252.96 602.271H255.417C255.355 603.043 255.128 603.727 254.735 604.324C254.342 604.916 253.807 605.38 253.13 605.716C252.453 606.047 251.657 606.213 250.744 606.213ZM257.528 606V595.091H260.099V606H257.528ZM258.821 593.543C258.413 593.543 258.063 593.408 257.77 593.138C257.476 592.863 257.329 592.534 257.329 592.151C257.329 591.762 257.476 591.433 257.77 591.163C258.063 590.889 258.413 590.751 258.821 590.751C259.233 590.751 259.583 590.889 259.872 591.163C260.165 591.433 260.312 591.762 260.312 592.151C260.312 592.534 260.165 592.863 259.872 593.138C259.583 593.408 259.233 593.543 258.821 593.543ZM267.501 606.213C266.436 606.213 265.513 605.979 264.732 605.51C263.95 605.041 263.344 604.385 262.913 603.543C262.487 602.7 262.274 601.715 262.274 600.588C262.274 599.461 262.487 598.474 262.913 597.626C263.344 596.779 263.95 596.121 264.732 595.652C265.513 595.183 266.436 594.949 267.501 594.949C268.567 594.949 269.49 595.183 270.271 595.652C271.053 596.121 271.656 596.779 272.082 597.626C272.513 598.474 272.729 599.461 272.729 600.588C272.729 601.715 272.513 602.7 272.082 603.543C271.656 604.385 271.053 605.041 270.271 605.51C269.49 605.979 268.567 606.213 267.501 606.213ZM267.516 604.153C268.093 604.153 268.576 603.995 268.964 603.678C269.353 603.356 269.642 602.925 269.831 602.385C270.025 601.845 270.122 601.244 270.122 600.581C270.122 599.913 270.025 599.31 269.831 598.77C269.642 598.225 269.353 597.792 268.964 597.47C268.576 597.148 268.093 596.987 267.516 596.987C266.924 596.987 266.431 597.148 266.038 597.47C265.65 597.792 265.359 598.225 265.165 598.77C264.975 599.31 264.881 599.913 264.881 600.581C264.881 601.244 264.975 601.845 265.165 602.385C265.359 602.925 265.65 603.356 266.038 603.678C266.431 603.995 266.924 604.153 267.516 604.153ZM281.864 601.412V595.091H284.435V606H281.942V604.061H281.828C281.582 604.672 281.177 605.171 280.614 605.56C280.055 605.948 279.366 606.142 278.547 606.142C277.832 606.142 277.2 605.983 276.651 605.666C276.106 605.344 275.68 604.878 275.373 604.267C275.065 603.652 274.911 602.908 274.911 602.037V595.091H277.482V601.639C277.482 602.33 277.671 602.88 278.05 603.287C278.429 603.694 278.926 603.898 279.542 603.898C279.92 603.898 280.287 603.805 280.642 603.621C280.998 603.436 281.289 603.161 281.516 602.797C281.748 602.428 281.864 601.966 281.864 601.412ZM295.701 597.974L293.357 598.23C293.291 597.993 293.175 597.771 293.009 597.562C292.848 597.354 292.63 597.186 292.356 597.058C292.081 596.93 291.745 596.866 291.347 596.866C290.812 596.866 290.362 596.982 289.998 597.214C289.638 597.446 289.46 597.747 289.465 598.116C289.46 598.434 289.576 598.692 289.813 598.891C290.055 599.089 290.452 599.253 291.006 599.381L292.867 599.778C293.899 600.001 294.666 600.354 295.168 600.837C295.675 601.32 295.931 601.952 295.935 602.733C295.931 603.42 295.729 604.026 295.332 604.551C294.939 605.072 294.392 605.479 293.691 605.773C292.99 606.066 292.185 606.213 291.276 606.213C289.941 606.213 288.866 605.934 288.052 605.375C287.237 604.812 286.752 604.028 286.596 603.024L289.103 602.783C289.217 603.275 289.458 603.647 289.827 603.898C290.197 604.149 290.677 604.274 291.269 604.274C291.88 604.274 292.37 604.149 292.739 603.898C293.113 603.647 293.3 603.337 293.3 602.967C293.3 602.655 293.18 602.397 292.938 602.193C292.701 601.99 292.332 601.833 291.83 601.724L289.969 601.334C288.923 601.116 288.149 600.749 287.647 600.233C287.145 599.712 286.897 599.054 286.901 598.259C286.897 597.586 287.079 597.004 287.448 596.511C287.822 596.014 288.341 595.631 289.004 595.361C289.671 595.086 290.441 594.949 291.312 594.949C292.59 594.949 293.596 595.221 294.33 595.766C295.069 596.31 295.526 597.046 295.701 597.974ZM306.156 606.22C305.464 606.22 304.842 606.097 304.288 605.851C303.738 605.6 303.303 605.231 302.981 604.743C302.664 604.255 302.505 603.654 302.505 602.939C302.505 602.323 302.619 601.814 302.846 601.412C303.073 601.009 303.383 600.688 303.776 600.446C304.169 600.205 304.612 600.022 305.104 599.899C305.602 599.771 306.115 599.679 306.646 599.622C307.285 599.556 307.803 599.497 308.201 599.445C308.599 599.388 308.888 599.303 309.067 599.189C309.252 599.071 309.344 598.888 309.344 598.642V598.599C309.344 598.064 309.186 597.65 308.869 597.357C308.551 597.063 308.094 596.916 307.498 596.916C306.868 596.916 306.369 597.054 305.999 597.328C305.635 597.603 305.388 597.927 305.261 598.301L302.86 597.96C303.049 597.297 303.362 596.743 303.798 596.298C304.233 595.848 304.766 595.512 305.396 595.29C306.025 595.062 306.721 594.949 307.484 594.949C308.009 594.949 308.532 595.01 309.053 595.134C309.574 595.257 310.05 595.46 310.481 595.744C310.912 596.024 311.257 596.405 311.518 596.888C311.783 597.371 311.915 597.974 311.915 598.699V606H309.444V604.501H309.359C309.202 604.804 308.982 605.089 308.698 605.354C308.419 605.614 308.066 605.825 307.64 605.986C307.219 606.142 306.724 606.22 306.156 606.22ZM306.823 604.331C307.339 604.331 307.787 604.229 308.165 604.026C308.544 603.817 308.835 603.543 309.039 603.202C309.247 602.861 309.352 602.489 309.352 602.087V600.801C309.271 600.867 309.134 600.929 308.94 600.986C308.75 601.043 308.537 601.092 308.3 601.135C308.064 601.178 307.829 601.215 307.597 601.249C307.365 601.282 307.164 601.31 306.994 601.334C306.61 601.386 306.267 601.471 305.964 601.589C305.661 601.708 305.422 601.874 305.246 602.087C305.071 602.295 304.984 602.565 304.984 602.896C304.984 603.37 305.156 603.727 305.502 603.969C305.848 604.21 306.288 604.331 306.823 604.331ZM319.259 606.213C318.17 606.213 317.235 605.974 316.454 605.496C315.677 605.018 315.078 604.357 314.657 603.514C314.24 602.667 314.032 601.691 314.032 600.588C314.032 599.48 314.245 598.502 314.671 597.655C315.097 596.803 315.699 596.14 316.475 595.666C317.256 595.188 318.18 594.949 319.245 594.949C320.13 594.949 320.914 595.112 321.596 595.439C322.282 595.761 322.829 596.218 323.237 596.81C323.644 597.397 323.876 598.083 323.933 598.869H321.475C321.376 598.344 321.139 597.906 320.765 597.555C320.396 597.2 319.901 597.023 319.281 597.023C318.755 597.023 318.293 597.165 317.896 597.449C317.498 597.728 317.188 598.131 316.965 598.656C316.747 599.182 316.638 599.812 316.638 600.545C316.638 601.289 316.747 601.928 316.965 602.463C317.183 602.993 317.488 603.403 317.881 603.692C318.279 603.976 318.746 604.118 319.281 604.118C319.659 604.118 319.998 604.047 320.296 603.905C320.599 603.758 320.853 603.547 321.056 603.273C321.26 602.998 321.399 602.664 321.475 602.271H323.933C323.871 603.043 323.644 603.727 323.251 604.324C322.858 604.916 322.323 605.38 321.646 605.716C320.969 606.047 320.173 606.213 319.259 606.213ZM330.802 606.213C329.713 606.213 328.778 605.974 327.997 605.496C327.22 605.018 326.621 604.357 326.2 603.514C325.783 602.667 325.575 601.691 325.575 600.588C325.575 599.48 325.788 598.502 326.214 597.655C326.64 596.803 327.242 596.14 328.018 595.666C328.799 595.188 329.723 594.949 330.788 594.949C331.673 594.949 332.457 595.112 333.139 595.439C333.825 595.761 334.372 596.218 334.779 596.81C335.187 597.397 335.419 598.083 335.475 598.869H333.018C332.919 598.344 332.682 597.906 332.308 597.555C331.939 597.2 331.444 597.023 330.824 597.023C330.298 597.023 329.836 597.165 329.439 597.449C329.041 597.728 328.731 598.131 328.508 598.656C328.29 599.182 328.181 599.812 328.181 600.545C328.181 601.289 328.29 601.928 328.508 602.463C328.726 602.993 329.031 603.403 329.424 603.692C329.822 603.976 330.288 604.118 330.824 604.118C331.202 604.118 331.541 604.047 331.839 603.905C332.142 603.758 332.395 603.547 332.599 603.273C332.803 602.998 332.942 602.664 333.018 602.271H335.475C335.414 603.043 335.187 603.727 334.794 604.324C334.401 604.916 333.866 605.38 333.189 605.716C332.511 606.047 331.716 606.213 330.802 606.213ZM342.345 606.213C341.28 606.213 340.357 605.979 339.575 605.51C338.794 605.041 338.188 604.385 337.757 603.543C337.331 602.7 337.118 601.715 337.118 600.588C337.118 599.461 337.331 598.474 337.757 597.626C338.188 596.779 338.794 596.121 339.575 595.652C340.357 595.183 341.28 594.949 342.345 594.949C343.411 594.949 344.334 595.183 345.115 595.652C345.896 596.121 346.5 596.779 346.926 597.626C347.357 598.474 347.572 599.461 347.572 600.588C347.572 601.715 347.357 602.7 346.926 603.543C346.5 604.385 345.896 605.041 345.115 605.51C344.334 605.979 343.411 606.213 342.345 606.213ZM342.359 604.153C342.937 604.153 343.42 603.995 343.808 603.678C344.196 603.356 344.485 602.925 344.675 602.385C344.869 601.845 344.966 601.244 344.966 600.581C344.966 599.913 344.869 599.31 344.675 598.77C344.485 598.225 344.196 597.792 343.808 597.47C343.42 597.148 342.937 596.987 342.359 596.987C341.768 596.987 341.275 597.148 340.882 597.47C340.494 597.792 340.203 598.225 340.009 598.77C339.819 599.31 339.724 599.913 339.724 600.581C339.724 601.244 339.819 601.845 340.009 602.385C340.203 602.925 340.494 603.356 340.882 603.678C341.275 603.995 341.768 604.153 342.359 604.153ZM356.708 601.412V595.091H359.279V606H356.786V604.061H356.672C356.426 604.672 356.021 605.171 355.458 605.56C354.899 605.948 354.21 606.142 353.391 606.142C352.676 606.142 352.044 605.983 351.495 605.666C350.95 605.344 350.524 604.878 350.216 604.267C349.908 603.652 349.755 602.908 349.755 602.037V595.091H352.326V601.639C352.326 602.33 352.515 602.88 352.894 603.287C353.273 603.694 353.77 603.898 354.385 603.898C354.764 603.898 355.131 603.805 355.486 603.621C355.841 603.436 356.132 603.161 356.36 602.797C356.592 602.428 356.708 601.966 356.708 601.412ZM364.494 599.608V606H361.923V595.091H364.38V596.945H364.508C364.759 596.334 365.159 595.848 365.708 595.489C366.262 595.129 366.946 594.949 367.761 594.949C368.513 594.949 369.169 595.11 369.728 595.432C370.291 595.754 370.727 596.22 371.035 596.831C371.347 597.442 371.501 598.183 371.496 599.054V606H368.925V599.452C368.925 598.723 368.736 598.152 368.357 597.74C367.983 597.328 367.465 597.122 366.802 597.122C366.352 597.122 365.952 597.222 365.602 597.42C365.256 597.615 364.984 597.896 364.785 598.266C364.591 598.635 364.494 599.082 364.494 599.608ZM379.558 595.091V597.08H373.286V595.091H379.558ZM374.835 592.477H377.406V602.719C377.406 603.064 377.458 603.33 377.562 603.514C377.671 603.694 377.813 603.817 377.988 603.884C378.163 603.95 378.357 603.983 378.57 603.983C378.731 603.983 378.878 603.971 379.011 603.947C379.148 603.924 379.252 603.902 379.323 603.884L379.756 605.893C379.619 605.941 379.423 605.993 379.167 606.05C378.916 606.107 378.608 606.14 378.244 606.149C377.6 606.168 377.02 606.071 376.504 605.858C375.987 605.64 375.578 605.304 375.275 604.849C374.977 604.395 374.83 603.827 374.835 603.145V592.477ZM390.174 597.974L387.83 598.23C387.764 597.993 387.648 597.771 387.482 597.562C387.321 597.354 387.103 597.186 386.828 597.058C386.554 596.93 386.218 596.866 385.82 596.866C385.285 596.866 384.835 596.982 384.471 597.214C384.111 597.446 383.933 597.747 383.938 598.116C383.933 598.434 384.049 598.692 384.286 598.891C384.527 599.089 384.925 599.253 385.479 599.381L387.34 599.778C388.372 600.001 389.139 600.354 389.641 600.837C390.148 601.32 390.403 601.952 390.408 602.733C390.403 603.42 390.202 604.026 389.804 604.551C389.411 605.072 388.864 605.479 388.164 605.773C387.463 606.066 386.658 606.213 385.749 606.213C384.414 606.213 383.339 605.934 382.525 605.375C381.71 604.812 381.225 604.028 381.069 603.024L383.576 602.783C383.689 603.275 383.931 603.647 384.3 603.898C384.669 604.149 385.15 604.274 385.742 604.274C386.353 604.274 386.843 604.149 387.212 603.898C387.586 603.647 387.773 603.337 387.773 602.967C387.773 602.655 387.652 602.397 387.411 602.193C387.174 601.99 386.805 601.833 386.303 601.724L384.442 601.334C383.396 601.116 382.622 600.749 382.12 600.233C381.618 599.712 381.369 599.054 381.374 598.259C381.369 597.586 381.551 597.004 381.921 596.511C382.295 596.014 382.813 595.631 383.476 595.361C384.144 595.086 384.913 594.949 385.784 594.949C387.063 594.949 388.069 595.221 388.803 595.766C389.542 596.31 389.998 597.046 390.174 597.974Z" fill="#F8BE2A"/>
<path fill-rule="evenodd" clip-rule="evenodd" d="M49.39 588.697C48.0699 586.434 44.8 586.434 43.4799 588.697L33.4712 605.855C32.1408 608.136 33.7859 611 36.4262 611H56.4437C59.0841 611 60.7292 608.136 59.3988 605.855L49.39 588.697ZM46.435 592.184C45.4903 592.184 44.7244 592.95 44.7244 593.895V600.737C44.7244 601.682 45.4903 602.447 46.435 602.447C47.3797 602.447 48.1455 601.682 48.1455 600.737V593.895C48.1455 592.95 47.3797 592.184 46.435 592.184ZM46.435 603.588C45.4903 603.588 44.7244 604.354 44.7244 605.298C44.7244 606.243 45.4903 607.009 46.435 607.009C47.3797 607.009 48.1455 606.243 48.1455 605.298C48.1455 604.354 47.3797 603.588 46.435 603.588Z" fill="#F8BE2A"/>
<path d="M685.75 72C685.75 59.1594 696.159 48.75 709 48.75H733C745.841 48.75 756.25 59.1594 756.25 72V96C756.25 108.841 745.841 119.25 733 119.25H709C696.159 119.25 685.75 108.841 685.75 96V72Z" fill="url(#paint2_linear_46_5)" fill-opacity="0.7" stroke="url(#paint3_linear_46_5)" stroke-width="1.5"/>
<path fill-rule="evenodd" clip-rule="evenodd" d="M724.39 73.6973C723.07 71.4342 719.8 71.4342 718.48 73.6973L708.471 90.8552C707.141 93.1358 708.786 96 711.426 96H731.444C734.084 96 735.729 93.1358 734.399 90.8552L724.39 73.6973ZM721.435 77.1842C720.49 77.1842 719.724 77.95 719.724 78.8947V85.7368C719.724 86.6815 720.49 87.4474 721.435 87.4474C722.38 87.4474 723.145 86.6815 723.145 85.7368V78.8947C723.145 77.95 722.38 77.1842 721.435 77.1842ZM721.435 88.5877C720.49 88.5877 719.724 89.3535 719.724 90.2982C719.724 91.2429 720.49 92.0088 721.435 92.0088C722.38 92.0088 723.145 91.2429 723.145 90.2982C723.145 89.3535 722.38 88.5877 721.435 88.5877Z" fill="#F8BE2A"/>
<rect x="204" y="129" width="350" height="425" rx="16" fill="#10121E"/>
<rect x="236" y="161" width="286" height="249" rx="16" fill="#161926"/>
<g filter="url(#filter0_d_46_5)">
<path fill-rule="evenodd" clip-rule="evenodd" d="M351 265.749C351 261.445 353.679 257.601 357.702 256.13L375.52 249.616C377.768 248.795 380.232 248.795 382.48 249.616L400.298 256.13C404.321 257.601 407 261.445 407 265.749V284.227C407 290.897 405.269 297.451 401.977 303.242C398.599 309.184 393.701 314.108 387.791 317.504L384.052 319.651C380.921 321.45 377.079 321.45 373.948 319.651L370.209 317.504C364.299 314.108 359.401 309.184 356.023 303.242C352.731 297.451 351 290.897 351 284.227V265.749ZM370.215 289.053C366.236 291.324 363.213 295.09 361.9 299.59C361.109 302.303 363.461 304.641 366.273 304.641H391.727C394.539 304.641 396.891 302.303 396.1 299.59C394.787 295.09 391.764 291.324 387.785 289.053C385.301 290.813 382.27 291.846 379 291.846C375.73 291.846 372.699 290.813 370.215 289.053ZM379 286.728C384.623 286.728 389.182 282.146 389.182 276.493C389.182 270.839 384.623 266.257 379 266.257C373.377 266.257 368.818 270.839 368.818 276.493C368.818 282.146 373.377 286.728 379 286.728Z" fill="url(#paint4_linear_46_5)" shape-rendering="crispEdges"/>
</g>
<path d="M245.339 450.453C245.273 449.833 244.994 449.35 244.501 449.004C244.014 448.659 243.379 448.486 242.598 448.486C242.049 448.486 241.578 448.569 241.185 448.734C240.792 448.9 240.491 449.125 240.283 449.409C240.074 449.693 239.968 450.018 239.963 450.382C239.963 450.685 240.032 450.948 240.169 451.17C240.311 451.393 240.503 451.582 240.744 451.739C240.986 451.89 241.253 452.018 241.547 452.122C241.84 452.226 242.136 452.314 242.435 452.385L243.798 452.726C244.348 452.854 244.875 453.027 245.382 453.244C245.893 453.462 246.35 453.737 246.753 454.068C247.16 454.4 247.482 454.8 247.719 455.268C247.955 455.737 248.074 456.286 248.074 456.916C248.074 457.768 247.856 458.519 247.42 459.168C246.985 459.812 246.355 460.316 245.531 460.68C244.712 461.04 243.72 461.22 242.555 461.22C241.424 461.22 240.441 461.045 239.608 460.695C238.779 460.344 238.131 459.833 237.662 459.161C237.198 458.488 236.947 457.669 236.909 456.703H239.501C239.539 457.21 239.696 457.631 239.97 457.967C240.245 458.304 240.602 458.554 241.043 458.72C241.488 458.886 241.985 458.969 242.534 458.969C243.107 458.969 243.609 458.884 244.04 458.713C244.475 458.538 244.816 458.296 245.062 457.989C245.309 457.676 245.434 457.312 245.439 456.895C245.434 456.516 245.323 456.204 245.105 455.957C244.887 455.706 244.582 455.498 244.189 455.332C243.801 455.162 243.346 455.01 242.825 454.878L241.17 454.452C239.973 454.144 239.026 453.678 238.33 453.053C237.638 452.423 237.293 451.587 237.293 450.545C237.293 449.688 237.525 448.938 237.989 448.294C238.457 447.65 239.094 447.151 239.899 446.795C240.704 446.436 241.616 446.256 242.634 446.256C243.666 446.256 244.57 446.436 245.347 446.795C246.128 447.151 246.741 447.645 247.186 448.28C247.631 448.91 247.861 449.634 247.875 450.453H245.339ZM255.139 461.213C254.045 461.213 253.1 460.986 252.305 460.531C251.514 460.072 250.906 459.423 250.48 458.585C250.054 457.742 249.841 456.75 249.841 455.609C249.841 454.487 250.054 453.502 250.48 452.655C250.911 451.803 251.512 451.14 252.284 450.666C253.056 450.188 253.962 449.949 255.004 449.949C255.676 449.949 256.311 450.058 256.907 450.276C257.509 450.489 258.039 450.82 258.498 451.27C258.962 451.72 259.327 452.293 259.592 452.989C259.857 453.68 259.99 454.504 259.99 455.46V456.249H251.048V454.516H257.525C257.52 454.023 257.414 453.585 257.206 453.202C256.997 452.813 256.706 452.508 256.332 452.286C255.963 452.063 255.532 451.952 255.039 451.952C254.514 451.952 254.052 452.08 253.654 452.335C253.257 452.586 252.947 452.918 252.724 453.33C252.506 453.737 252.395 454.184 252.39 454.672V456.185C252.39 456.819 252.506 457.364 252.738 457.818C252.97 458.268 253.295 458.614 253.711 458.855C254.128 459.092 254.616 459.21 255.174 459.21C255.548 459.21 255.887 459.158 256.19 459.054C256.493 458.945 256.756 458.786 256.978 458.578C257.201 458.37 257.369 458.112 257.483 457.804L259.883 458.074C259.732 458.708 259.443 459.262 259.017 459.736C258.595 460.205 258.056 460.569 257.397 460.83C256.739 461.085 255.986 461.213 255.139 461.213ZM266.923 461.213C265.834 461.213 264.899 460.974 264.118 460.496C263.341 460.018 262.742 459.357 262.321 458.514C261.904 457.667 261.696 456.691 261.696 455.588C261.696 454.48 261.909 453.502 262.335 452.655C262.761 451.803 263.363 451.14 264.139 450.666C264.92 450.188 265.844 449.949 266.909 449.949C267.795 449.949 268.578 450.112 269.26 450.439C269.946 450.761 270.493 451.218 270.901 451.81C271.308 452.397 271.54 453.083 271.597 453.869H269.139C269.04 453.344 268.803 452.906 268.429 452.555C268.06 452.2 267.565 452.023 266.945 452.023C266.419 452.023 265.957 452.165 265.56 452.449C265.162 452.728 264.852 453.131 264.629 453.656C264.411 454.182 264.303 454.812 264.303 455.545C264.303 456.289 264.411 456.928 264.629 457.463C264.847 457.993 265.152 458.403 265.545 458.692C265.943 458.976 266.41 459.118 266.945 459.118C267.323 459.118 267.662 459.047 267.96 458.905C268.263 458.758 268.517 458.547 268.72 458.273C268.924 457.998 269.063 457.664 269.139 457.271H271.597C271.535 458.043 271.308 458.727 270.915 459.324C270.522 459.916 269.987 460.38 269.31 460.716C268.633 461.047 267.837 461.213 266.923 461.213ZM280.661 456.412V450.091H283.232V461H280.739V459.061H280.625C280.379 459.672 279.974 460.171 279.411 460.56C278.852 460.948 278.163 461.142 277.344 461.142C276.629 461.142 275.997 460.983 275.448 460.666C274.903 460.344 274.477 459.878 274.169 459.267C273.862 458.652 273.708 457.908 273.708 457.037V450.091H276.279V456.639C276.279 457.33 276.468 457.88 276.847 458.287C277.226 458.694 277.723 458.898 278.338 458.898C278.717 458.898 279.084 458.805 279.439 458.621C279.794 458.436 280.086 458.161 280.313 457.797C280.545 457.428 280.661 456.966 280.661 456.412ZM285.876 461V450.091H288.369V451.909H288.482C288.681 451.279 289.022 450.794 289.505 450.453C289.993 450.107 290.549 449.935 291.174 449.935C291.316 449.935 291.475 449.942 291.65 449.956C291.83 449.965 291.979 449.982 292.097 450.006V452.371C291.988 452.333 291.816 452.3 291.579 452.271C291.347 452.238 291.122 452.222 290.904 452.222C290.435 452.222 290.014 452.323 289.64 452.527C289.271 452.726 288.979 453.003 288.766 453.358C288.553 453.713 288.447 454.123 288.447 454.587V461H285.876ZM293.805 461V450.091H296.376V461H293.805ZM295.098 448.543C294.691 448.543 294.34 448.408 294.047 448.138C293.753 447.863 293.607 447.534 293.607 447.151C293.607 446.762 293.753 446.433 294.047 446.163C294.34 445.889 294.691 445.751 295.098 445.751C295.51 445.751 295.86 445.889 296.149 446.163C296.443 446.433 296.589 446.762 296.589 447.151C296.589 447.534 296.443 447.863 296.149 448.138C295.86 448.408 295.51 448.543 295.098 448.543ZM304.468 450.091V452.08H298.196V450.091H304.468ZM299.745 447.477H302.316V457.719C302.316 458.064 302.368 458.33 302.472 458.514C302.581 458.694 302.723 458.817 302.898 458.884C303.073 458.95 303.267 458.983 303.48 458.983C303.641 458.983 303.788 458.971 303.921 458.947C304.058 458.924 304.162 458.902 304.233 458.884L304.667 460.893C304.529 460.941 304.333 460.993 304.077 461.05C303.826 461.107 303.518 461.14 303.154 461.149C302.51 461.168 301.93 461.071 301.414 460.858C300.898 460.64 300.488 460.304 300.185 459.849C299.887 459.395 299.74 458.827 299.745 458.145V447.477ZM308.216 465.091C307.866 465.091 307.541 465.063 307.243 465.006C306.949 464.954 306.715 464.892 306.54 464.821L307.136 462.818C307.51 462.927 307.844 462.979 308.138 462.974C308.431 462.97 308.689 462.877 308.912 462.697C309.139 462.522 309.331 462.229 309.487 461.817L309.707 461.227L305.751 450.091H308.479L310.993 458.33H311.107L313.628 450.091H316.362L311.994 462.321C311.791 462.899 311.521 463.393 311.185 463.805C310.848 464.222 310.437 464.539 309.949 464.757C309.466 464.98 308.888 465.091 308.216 465.091Z" fill="white"/>
<path d="M237.979 491H236.348L240.012 480.818H241.787L245.451 491H243.82L240.942 482.668H240.862L237.979 491ZM238.252 487.013H243.542V488.305H238.252V487.013ZM248.289 486.466V491H246.802V483.364H248.229V484.607H248.323C248.499 484.202 248.774 483.877 249.149 483.632C249.526 483.387 250.002 483.264 250.575 483.264C251.096 483.264 251.552 483.374 251.943 483.592C252.334 483.808 252.637 484.129 252.852 484.557C253.068 484.984 253.176 485.513 253.176 486.143V491H251.689V486.322C251.689 485.768 251.545 485.336 251.257 485.024C250.968 484.709 250.572 484.552 250.068 484.552C249.724 484.552 249.417 484.626 249.149 484.776C248.883 484.925 248.673 485.143 248.517 485.432C248.365 485.717 248.289 486.062 248.289 486.466ZM258.734 483.364V484.557H254.563V483.364H258.734ZM255.681 481.534H257.168V488.758C257.168 489.046 257.211 489.263 257.297 489.409C257.383 489.552 257.494 489.649 257.63 489.702C257.769 489.752 257.92 489.777 258.083 489.777C258.202 489.777 258.306 489.769 258.396 489.752C258.485 489.736 258.555 489.722 258.605 489.712L258.873 490.94C258.787 490.973 258.664 491.007 258.505 491.04C258.346 491.076 258.147 491.096 257.909 491.099C257.517 491.106 257.153 491.036 256.815 490.891C256.477 490.745 256.203 490.519 255.994 490.214C255.786 489.91 255.681 489.527 255.681 489.066V481.534ZM260.378 491V483.364H261.865V491H260.378ZM261.129 482.185C260.87 482.185 260.648 482.099 260.463 481.927C260.28 481.751 260.189 481.542 260.189 481.3C260.189 481.055 260.28 480.846 260.463 480.674C260.648 480.498 260.87 480.411 261.129 480.411C261.387 480.411 261.608 480.498 261.79 480.674C261.976 480.846 262.069 481.055 262.069 481.3C262.069 481.542 261.976 481.751 261.79 481.927C261.608 482.099 261.387 482.185 261.129 482.185ZM275.907 480.818V491H274.495L269.32 483.533H269.225V491H267.689V480.818H269.111L274.291 488.295H274.386V480.818H275.907ZM282.866 487.833V483.364H284.357V491H282.896V489.678H282.816C282.641 490.085 282.359 490.425 281.971 490.697C281.587 490.965 281.108 491.099 280.534 491.099C280.044 491.099 279.61 490.992 279.232 490.776C278.857 490.558 278.562 490.234 278.347 489.807C278.135 489.379 278.029 488.851 278.029 488.221V483.364H279.515V488.042C279.515 488.562 279.659 488.977 279.948 489.285C280.236 489.593 280.61 489.747 281.071 489.747C281.35 489.747 281.626 489.678 281.901 489.538C282.18 489.399 282.41 489.189 282.593 488.907C282.778 488.625 282.869 488.267 282.866 487.833ZM287.722 488.41L287.712 486.595H287.971L291.013 483.364H292.793L289.323 487.043H289.089L287.722 488.41ZM286.355 491V480.818H287.841V491H286.355ZM291.177 491L288.443 487.371L289.467 486.332L293.002 491H291.177ZM297.124 491.154C296.372 491.154 295.724 490.993 295.181 490.672C294.64 490.347 294.223 489.891 293.928 489.305C293.636 488.715 293.49 488.024 293.49 487.232C293.49 486.449 293.636 485.76 293.928 485.163C294.223 484.567 294.634 484.101 295.161 483.766C295.691 483.432 296.311 483.264 297.02 483.264C297.451 483.264 297.869 483.335 298.273 483.478C298.677 483.621 299.04 483.844 299.362 484.149C299.683 484.454 299.937 484.85 300.122 485.337C300.308 485.821 300.401 486.41 300.401 487.102V487.629H294.33V486.516H298.944C298.944 486.125 298.865 485.778 298.705 485.477C298.546 485.172 298.323 484.931 298.034 484.756C297.749 484.58 297.414 484.492 297.03 484.492C296.612 484.492 296.248 484.595 295.936 484.8C295.628 485.003 295.389 485.268 295.22 485.596C295.055 485.921 294.972 486.274 294.972 486.655V487.525C294.972 488.035 295.061 488.469 295.24 488.827C295.423 489.185 295.676 489.459 296.001 489.648C296.326 489.833 296.705 489.926 297.139 489.926C297.421 489.926 297.678 489.886 297.91 489.807C298.142 489.724 298.343 489.601 298.512 489.439C298.681 489.277 298.81 489.076 298.899 488.837L300.306 489.091C300.194 489.505 299.991 489.868 299.7 490.18C299.411 490.488 299.048 490.728 298.611 490.901C298.177 491.07 297.681 491.154 297.124 491.154ZM303.984 489.608L303.909 490.15C303.86 490.548 303.775 490.962 303.656 491.393C303.54 491.827 303.419 492.23 303.293 492.601C303.17 492.972 303.069 493.267 302.99 493.486H301.936C301.979 493.28 302.038 493.002 302.115 492.651C302.191 492.303 302.266 491.913 302.338 491.482C302.411 491.051 302.466 490.612 302.502 490.165L302.552 489.608H303.984ZM309.744 480.818H311.608L314.849 488.733H314.969L318.21 480.818H320.075V491H318.613V483.632H318.518L315.516 490.985H314.303L311.3 483.627H311.205V491H309.744V480.818ZM324.411 491.169C323.927 491.169 323.49 491.08 323.099 490.901C322.707 490.718 322.398 490.455 322.169 490.11C321.943 489.765 321.831 489.343 321.831 488.842C321.831 488.411 321.914 488.057 322.079 487.778C322.245 487.5 322.469 487.28 322.751 487.117C323.032 486.955 323.347 486.832 323.695 486.749C324.043 486.666 324.398 486.603 324.759 486.56C325.216 486.507 325.588 486.464 325.873 486.431C326.158 486.395 326.365 486.337 326.494 486.257C326.623 486.178 326.688 486.048 326.688 485.869V485.835C326.688 485.4 326.565 485.064 326.32 484.825C326.078 484.587 325.717 484.467 325.236 484.467C324.736 484.467 324.341 484.578 324.053 484.8C323.768 485.019 323.571 485.263 323.461 485.531L322.064 485.213C322.23 484.749 322.472 484.375 322.79 484.089C323.112 483.801 323.481 483.592 323.899 483.463C324.317 483.33 324.756 483.264 325.216 483.264C325.521 483.264 325.845 483.301 326.186 483.374C326.531 483.443 326.852 483.572 327.15 483.761C327.452 483.95 327.699 484.22 327.891 484.572C328.083 484.92 328.18 485.372 328.18 485.929V491H326.728V489.956H326.668C326.572 490.148 326.428 490.337 326.236 490.523C326.043 490.708 325.796 490.862 325.495 490.985C325.193 491.108 324.832 491.169 324.411 491.169ZM324.734 489.976C325.145 489.976 325.497 489.895 325.788 489.732C326.083 489.57 326.307 489.358 326.459 489.096C326.615 488.831 326.693 488.547 326.693 488.246V487.261C326.64 487.314 326.537 487.364 326.385 487.411C326.236 487.454 326.065 487.492 325.873 487.525C325.68 487.555 325.493 487.583 325.311 487.609C325.129 487.633 324.976 487.652 324.854 487.669C324.565 487.705 324.302 487.767 324.063 487.853C323.828 487.939 323.639 488.063 323.496 488.226C323.357 488.385 323.287 488.597 323.287 488.862C323.287 489.23 323.423 489.509 323.695 489.697C323.967 489.883 324.313 489.976 324.734 489.976ZM335.882 485.228L334.534 485.467C334.478 485.294 334.389 485.13 334.266 484.974C334.147 484.819 333.984 484.691 333.779 484.592C333.573 484.492 333.316 484.442 333.008 484.442C332.587 484.442 332.236 484.537 331.954 484.726C331.672 484.911 331.532 485.152 331.532 485.447C331.532 485.702 331.626 485.907 331.815 486.063C332.004 486.219 332.309 486.347 332.73 486.446L333.943 486.724C334.645 486.887 335.169 487.137 335.514 487.475C335.859 487.813 336.031 488.252 336.031 488.793C336.031 489.25 335.898 489.658 335.633 490.016C335.371 490.37 335.005 490.649 334.534 490.851C334.067 491.053 333.525 491.154 332.909 491.154C332.054 491.154 331.356 490.972 330.816 490.607C330.275 490.239 329.944 489.717 329.821 489.041L331.258 488.822C331.348 489.197 331.532 489.48 331.81 489.673C332.088 489.862 332.451 489.956 332.899 489.956C333.386 489.956 333.775 489.855 334.067 489.653C334.359 489.447 334.505 489.197 334.505 488.902C334.505 488.663 334.415 488.463 334.236 488.3C334.06 488.138 333.79 488.015 333.426 487.933L332.133 487.649C331.421 487.487 330.894 487.228 330.552 486.874C330.214 486.519 330.045 486.07 330.045 485.526C330.045 485.076 330.171 484.681 330.423 484.343C330.675 484.005 331.023 483.741 331.467 483.553C331.911 483.36 332.42 483.264 332.993 483.264C333.819 483.264 334.468 483.443 334.942 483.801C335.416 484.156 335.729 484.631 335.882 485.228ZM343.388 485.228L342.04 485.467C341.984 485.294 341.894 485.13 341.772 484.974C341.653 484.819 341.49 484.691 341.285 484.592C341.079 484.492 340.822 484.442 340.514 484.442C340.093 484.442 339.742 484.537 339.46 484.726C339.178 484.911 339.037 485.152 339.037 485.447C339.037 485.702 339.132 485.907 339.321 486.063C339.51 486.219 339.815 486.347 340.236 486.446L341.449 486.724C342.151 486.887 342.675 487.137 343.02 487.475C343.364 487.813 343.537 488.252 343.537 488.793C343.537 489.25 343.404 489.658 343.139 490.016C342.877 490.37 342.511 490.649 342.04 490.851C341.573 491.053 341.031 491.154 340.415 491.154C339.559 491.154 338.862 490.972 338.322 490.607C337.781 490.239 337.45 489.717 337.327 489.041L338.764 488.822C338.854 489.197 339.037 489.48 339.316 489.673C339.594 489.862 339.957 489.956 340.405 489.956C340.892 489.956 341.281 489.855 341.573 489.653C341.865 489.447 342.01 489.197 342.01 488.902C342.01 488.663 341.921 488.463 341.742 488.3C341.566 488.138 341.296 488.015 340.932 487.933L339.639 487.649C338.926 487.487 338.399 487.228 338.058 486.874C337.72 486.519 337.551 486.07 337.551 485.526C337.551 485.076 337.677 484.681 337.929 484.343C338.181 484.005 338.529 483.741 338.973 483.553C339.417 483.36 339.926 483.264 340.499 483.264C341.324 483.264 341.974 483.443 342.448 483.801C342.922 484.156 343.235 484.631 343.388 485.228ZM348.996 480.818H350.86L354.101 488.733H354.221L357.462 480.818H359.327V491H357.865V483.632H357.77L354.768 490.985H353.555L350.552 483.627H350.457V491H348.996V480.818ZM364.732 491.154C363.98 491.154 363.332 490.993 362.788 490.672C362.248 490.347 361.83 489.891 361.535 489.305C361.243 488.715 361.098 488.024 361.098 487.232C361.098 486.449 361.243 485.76 361.535 485.163C361.83 484.567 362.241 484.101 362.768 483.766C363.298 483.432 363.918 483.264 364.627 483.264C365.058 483.264 365.476 483.335 365.88 483.478C366.285 483.621 366.648 483.844 366.969 484.149C367.291 484.454 367.544 484.85 367.73 485.337C367.915 485.821 368.008 486.41 368.008 487.102V487.629H361.938V486.516H366.551C366.551 486.125 366.472 485.778 366.313 485.477C366.154 485.172 365.93 484.931 365.642 484.756C365.357 484.58 365.022 484.492 364.637 484.492C364.22 484.492 363.855 484.595 363.544 484.8C363.235 485.003 362.997 485.268 362.828 485.596C362.662 485.921 362.579 486.274 362.579 486.655V487.525C362.579 488.035 362.669 488.469 362.848 488.827C363.03 489.185 363.283 489.459 363.608 489.648C363.933 489.833 364.313 489.926 364.747 489.926C365.029 489.926 365.285 489.886 365.517 489.807C365.749 489.724 365.95 489.601 366.119 489.439C366.288 489.277 366.417 489.076 366.507 488.837L367.914 489.091C367.801 489.505 367.599 489.868 367.307 490.18C367.019 490.488 366.656 490.728 366.218 490.901C365.784 491.07 365.289 491.154 364.732 491.154ZM371.144 486.466V491H369.657V483.364H371.084V484.607H371.179C371.354 484.202 371.63 483.877 372.004 483.632C372.382 483.387 372.858 483.264 373.431 483.264C373.951 483.264 374.407 483.374 374.798 483.592C375.189 483.808 375.492 484.129 375.708 484.557C375.923 484.984 376.031 485.513 376.031 486.143V491H374.545V486.322C374.545 485.768 374.4 485.336 374.112 485.024C373.824 484.709 373.428 484.552 372.924 484.552C372.579 484.552 372.273 484.626 372.004 484.776C371.739 484.925 371.528 485.143 371.373 485.432C371.22 485.717 371.144 486.062 371.144 486.466ZM381.589 483.364V484.557H377.418V483.364H381.589ZM378.537 481.534H380.023V488.758C380.023 489.046 380.066 489.263 380.153 489.409C380.239 489.552 380.35 489.649 380.486 489.702C380.625 489.752 380.776 489.777 380.938 489.777C381.057 489.777 381.162 489.769 381.251 489.752C381.341 489.736 381.41 489.722 381.46 489.712L381.729 490.94C381.642 490.973 381.52 491.007 381.361 491.04C381.202 491.076 381.003 491.096 380.764 491.099C380.373 491.106 380.008 491.036 379.67 490.891C379.332 490.745 379.059 490.519 378.85 490.214C378.641 489.91 378.537 489.527 378.537 489.066V481.534ZM383.234 491V483.364H384.72V491H383.234ZM383.984 482.185C383.726 482.185 383.504 482.099 383.318 481.927C383.136 481.751 383.045 481.542 383.045 481.3C383.045 481.055 383.136 480.846 383.318 480.674C383.504 480.498 383.726 480.411 383.984 480.411C384.243 480.411 384.463 480.498 384.646 480.674C384.831 480.846 384.924 481.055 384.924 481.3C384.924 481.542 384.831 481.751 384.646 481.927C384.463 482.099 384.243 482.185 383.984 482.185ZM389.937 491.154C389.221 491.154 388.596 490.99 388.062 490.662C387.529 490.334 387.114 489.875 386.819 489.285C386.524 488.695 386.377 488.005 386.377 487.217C386.377 486.424 386.524 485.732 386.819 485.138C387.114 484.545 387.529 484.085 388.062 483.756C388.596 483.428 389.221 483.264 389.937 483.264C390.653 483.264 391.277 483.428 391.811 483.756C392.345 484.085 392.759 484.545 393.054 485.138C393.349 485.732 393.496 486.424 393.496 487.217C393.496 488.005 393.349 488.695 393.054 489.285C392.759 489.875 392.345 490.334 391.811 490.662C391.277 490.99 390.653 491.154 389.937 491.154ZM389.942 489.906C390.406 489.906 390.79 489.784 391.095 489.538C391.4 489.293 391.625 488.967 391.771 488.559C391.92 488.151 391.995 487.702 391.995 487.212C391.995 486.724 391.92 486.277 391.771 485.869C391.625 485.458 391.4 485.129 391.095 484.88C390.79 484.631 390.406 484.507 389.942 484.507C389.474 484.507 389.086 484.631 388.778 484.88C388.473 485.129 388.246 485.458 388.097 485.869C387.951 486.277 387.878 486.724 387.878 487.212C387.878 487.702 387.951 488.151 388.097 488.559C388.246 488.967 388.473 489.293 388.778 489.538C389.086 489.784 389.474 489.906 389.942 489.906ZM396.642 486.466V491H395.156V483.364H396.582V484.607H396.677C396.853 484.202 397.128 483.877 397.502 483.632C397.88 483.387 398.356 483.264 398.929 483.264C399.449 483.264 399.905 483.374 400.296 483.592C400.687 483.808 400.991 484.129 401.206 484.557C401.421 484.984 401.529 485.513 401.529 486.143V491H400.043V486.322C400.043 485.768 399.898 485.336 399.61 485.024C399.322 484.709 398.926 484.552 398.422 484.552C398.077 484.552 397.771 484.626 397.502 484.776C397.237 484.925 397.027 485.143 396.871 485.432C396.718 485.717 396.642 486.062 396.642 486.466ZM405.457 489.608L405.382 490.15C405.332 490.548 405.248 490.962 405.129 491.393C405.013 491.827 404.892 492.23 404.766 492.601C404.643 492.972 404.542 493.267 404.462 493.486H403.408C403.451 493.28 403.511 493.002 403.587 492.651C403.664 492.303 403.738 491.913 403.811 491.482C403.884 491.051 403.939 490.612 403.975 490.165L404.025 489.608H405.457ZM245.575 508.129H244.024C243.964 507.798 243.853 507.506 243.691 507.254C243.529 507.002 243.33 506.789 243.094 506.613C242.859 506.437 242.596 506.305 242.304 506.215C242.016 506.126 241.709 506.081 241.384 506.081C240.798 506.081 240.272 506.228 239.808 506.523C239.348 506.818 238.983 507.251 238.714 507.821C238.449 508.391 238.317 509.087 238.317 509.909C238.317 510.738 238.449 511.437 238.714 512.007C238.983 512.577 239.349 513.008 239.813 513.3C240.277 513.591 240.799 513.737 241.379 513.737C241.701 513.737 242.006 513.694 242.294 513.608C242.586 513.518 242.849 513.388 243.085 513.215C243.32 513.043 243.519 512.832 243.681 512.584C243.847 512.332 243.961 512.044 244.024 511.719L245.575 511.724C245.492 512.224 245.332 512.685 245.093 513.106C244.858 513.523 244.554 513.885 244.183 514.19C243.815 514.491 243.394 514.725 242.92 514.891C242.446 515.056 241.929 515.139 241.369 515.139C240.488 515.139 239.702 514.93 239.013 514.513C238.323 514.092 237.78 513.49 237.382 512.708C236.988 511.926 236.79 510.993 236.79 509.909C236.79 508.822 236.989 507.889 237.387 507.11C237.785 506.328 238.328 505.728 239.018 505.31C239.707 504.889 240.491 504.679 241.369 504.679C241.91 504.679 242.413 504.757 242.881 504.913C243.351 505.065 243.774 505.29 244.148 505.589C244.523 505.884 244.833 506.245 245.078 506.673C245.323 507.097 245.489 507.582 245.575 508.129ZM248.781 510.466V515H247.294V504.818H248.761V508.607H248.855C249.034 508.196 249.308 507.869 249.676 507.627C250.044 507.385 250.524 507.264 251.117 507.264C251.641 507.264 252.098 507.372 252.49 507.587C252.884 507.803 253.189 508.124 253.404 508.552C253.623 508.976 253.732 509.506 253.732 510.143V515H252.246V510.322C252.246 509.762 252.102 509.327 251.813 509.019C251.525 508.708 251.124 508.552 250.61 508.552C250.259 508.552 249.944 508.626 249.666 508.776C249.391 508.925 249.173 509.143 249.014 509.432C248.859 509.717 248.781 510.062 248.781 510.466ZM257.938 515.169C257.454 515.169 257.017 515.08 256.626 514.901C256.235 514.718 255.925 514.455 255.696 514.11C255.471 513.765 255.358 513.343 255.358 512.842C255.358 512.411 255.441 512.057 255.607 511.778C255.772 511.5 255.996 511.28 256.278 511.117C256.56 510.955 256.874 510.832 257.222 510.749C257.57 510.666 257.925 510.603 258.286 510.56C258.744 510.507 259.115 510.464 259.4 510.431C259.685 510.395 259.892 510.337 260.021 510.257C260.151 510.178 260.215 510.048 260.215 509.869V509.835C260.215 509.4 260.093 509.064 259.847 508.825C259.606 508.587 259.244 508.467 258.764 508.467C258.263 508.467 257.869 508.578 257.58 508.8C257.295 509.019 257.098 509.263 256.989 509.531L255.592 509.213C255.758 508.749 255.999 508.375 256.318 508.089C256.639 507.801 257.009 507.592 257.426 507.463C257.844 507.33 258.283 507.264 258.744 507.264C259.049 507.264 259.372 507.301 259.713 507.374C260.058 507.443 260.379 507.572 260.678 507.761C260.979 507.95 261.226 508.22 261.419 508.572C261.611 508.92 261.707 509.372 261.707 509.929V515H260.255V513.956H260.195C260.099 514.148 259.955 514.337 259.763 514.523C259.571 514.708 259.324 514.862 259.022 514.985C258.721 515.108 258.359 515.169 257.938 515.169ZM258.262 513.976C258.673 513.976 259.024 513.895 259.316 513.732C259.61 513.57 259.834 513.358 259.987 513.096C260.142 512.831 260.22 512.547 260.22 512.246V511.261C260.167 511.314 260.065 511.364 259.912 511.411C259.763 511.454 259.592 511.492 259.4 511.525C259.208 511.555 259.021 511.583 258.838 511.609C258.656 511.633 258.503 511.652 258.381 511.669C258.093 511.705 257.829 511.767 257.59 511.853C257.355 511.939 257.166 512.063 257.024 512.226C256.884 512.385 256.815 512.597 256.815 512.862C256.815 513.23 256.951 513.509 257.222 513.697C257.494 513.883 257.841 513.976 258.262 513.976ZM265.173 510.466V515H263.687V507.364H265.114V508.607H265.208C265.384 508.202 265.659 507.877 266.033 507.632C266.411 507.387 266.887 507.264 267.46 507.264C267.981 507.264 268.436 507.374 268.827 507.592C269.219 507.808 269.522 508.129 269.737 508.557C269.953 508.984 270.06 509.513 270.06 510.143V515H268.574V510.322C268.574 509.768 268.43 509.336 268.141 509.024C267.853 508.709 267.457 508.552 266.953 508.552C266.608 508.552 266.302 508.626 266.033 508.776C265.768 508.925 265.558 509.143 265.402 509.432C265.25 509.717 265.173 510.062 265.173 510.466ZM273.54 510.466V515H272.054V507.364H273.481V508.607H273.575C273.751 508.202 274.026 507.877 274.401 507.632C274.778 507.387 275.254 507.264 275.827 507.264C276.348 507.264 276.804 507.374 277.195 507.592C277.586 507.808 277.889 508.129 278.104 508.557C278.32 508.984 278.428 509.513 278.428 510.143V515H276.941V510.322C276.941 509.768 276.797 509.336 276.509 509.024C276.22 508.709 275.824 508.552 275.32 508.552C274.976 508.552 274.669 508.626 274.401 508.776C274.135 508.925 273.925 509.143 273.769 509.432C273.617 509.717 273.54 510.062 273.54 510.466ZM283.712 515.154C282.96 515.154 282.312 514.993 281.768 514.672C281.228 514.347 280.811 513.891 280.516 513.305C280.224 512.715 280.078 512.024 280.078 511.232C280.078 510.449 280.224 509.76 280.516 509.163C280.811 508.567 281.222 508.101 281.749 507.766C282.279 507.432 282.899 507.264 283.608 507.264C284.039 507.264 284.456 507.335 284.861 507.478C285.265 507.621 285.628 507.844 285.95 508.149C286.271 508.454 286.525 508.85 286.71 509.337C286.896 509.821 286.989 510.41 286.989 511.102V511.629H280.918V510.516H285.532C285.532 510.125 285.452 509.778 285.293 509.477C285.134 509.172 284.911 508.931 284.622 508.756C284.337 508.58 284.002 508.492 283.618 508.492C283.2 508.492 282.836 508.595 282.524 508.8C282.216 509.003 281.977 509.268 281.808 509.596C281.643 509.921 281.56 510.274 281.56 510.655V511.525C281.56 512.035 281.649 512.469 281.828 512.827C282.01 513.185 282.264 513.459 282.589 513.648C282.914 513.833 283.293 513.926 283.727 513.926C284.009 513.926 284.266 513.886 284.498 513.807C284.73 513.724 284.93 513.601 285.099 513.439C285.268 513.277 285.398 513.076 285.487 512.837L286.894 513.091C286.781 513.505 286.579 513.868 286.288 514.18C285.999 514.488 285.636 514.728 285.199 514.901C284.765 515.07 284.269 515.154 283.712 515.154ZM290.124 504.818V515H288.638V504.818H290.124ZM301.502 507.493C301.449 507.022 301.23 506.658 300.846 506.399C300.461 506.137 299.977 506.006 299.394 506.006C298.976 506.006 298.615 506.073 298.31 506.205C298.005 506.335 297.768 506.513 297.599 506.742C297.434 506.968 297.351 507.224 297.351 507.513C297.351 507.755 297.407 507.964 297.52 508.139C297.636 508.315 297.787 508.462 297.972 508.582C298.161 508.698 298.363 508.795 298.579 508.875C298.794 508.951 299.001 509.014 299.2 509.064L300.194 509.322C300.519 509.402 300.852 509.51 301.194 509.646C301.535 509.781 301.852 509.96 302.143 510.183C302.435 510.405 302.67 510.68 302.849 511.008C303.032 511.336 303.123 511.729 303.123 512.186C303.123 512.763 302.974 513.275 302.675 513.722C302.38 514.17 301.951 514.523 301.388 514.781C300.827 515.04 300.15 515.169 299.354 515.169C298.592 515.169 297.932 515.048 297.376 514.806C296.819 514.564 296.383 514.221 296.068 513.777C295.753 513.33 295.579 512.799 295.546 512.186H297.087C297.117 512.554 297.236 512.861 297.445 513.106C297.657 513.348 297.927 513.528 298.256 513.648C298.587 513.764 298.95 513.822 299.344 513.822C299.778 513.822 300.165 513.754 300.503 513.618C300.844 513.479 301.113 513.286 301.308 513.041C301.504 512.793 301.601 512.503 301.601 512.171C301.601 511.87 301.515 511.623 301.343 511.43C301.174 511.238 300.943 511.079 300.652 510.953C300.363 510.827 300.037 510.716 299.672 510.62L298.469 510.292C297.654 510.07 297.008 509.743 296.53 509.312C296.056 508.882 295.819 508.312 295.819 507.602C295.819 507.016 295.979 506.504 296.297 506.066C296.615 505.629 297.046 505.289 297.589 505.047C298.133 504.802 298.746 504.679 299.429 504.679C300.118 504.679 300.726 504.8 301.253 505.042C301.784 505.284 302.201 505.617 302.506 506.041C302.811 506.462 302.97 506.946 302.983 507.493H301.502ZM304.839 517.864V507.364H306.291V508.602H306.415C306.501 508.442 306.626 508.259 306.788 508.05C306.95 507.841 307.176 507.659 307.464 507.503C307.752 507.344 308.134 507.264 308.608 507.264C309.224 507.264 309.774 507.42 310.258 507.732C310.742 508.043 311.122 508.492 311.397 509.079C311.675 509.665 311.814 510.371 311.814 511.197C311.814 512.022 311.677 512.73 311.402 513.32C311.127 513.906 310.749 514.359 310.268 514.677C309.788 514.992 309.239 515.149 308.623 515.149C308.158 515.149 307.779 515.071 307.484 514.915C307.192 514.76 306.964 514.577 306.798 514.369C306.632 514.16 306.505 513.974 306.415 513.812H306.326V517.864H304.839ZM306.296 511.182C306.296 511.719 306.374 512.189 306.529 512.594C306.685 512.998 306.911 513.315 307.206 513.543C307.501 513.769 307.862 513.881 308.289 513.881C308.734 513.881 309.105 513.764 309.403 513.528C309.701 513.29 309.927 512.967 310.079 512.559C310.235 512.151 310.313 511.692 310.313 511.182C310.313 510.678 310.237 510.226 310.084 509.825C309.935 509.424 309.71 509.107 309.408 508.875C309.11 508.643 308.737 508.527 308.289 508.527C307.859 508.527 307.494 508.638 307.196 508.86C306.901 509.082 306.677 509.392 306.525 509.79C306.372 510.187 306.296 510.652 306.296 511.182ZM315.702 515.169C315.218 515.169 314.781 515.08 314.39 514.901C313.998 514.718 313.689 514.455 313.46 514.11C313.234 513.765 313.122 513.343 313.122 512.842C313.122 512.411 313.205 512.057 313.37 511.778C313.536 511.5 313.76 511.28 314.042 511.117C314.323 510.955 314.638 510.832 314.986 510.749C315.334 510.666 315.689 510.603 316.05 510.56C316.507 510.507 316.879 510.464 317.164 510.431C317.449 510.395 317.656 510.337 317.785 510.257C317.914 510.178 317.979 510.048 317.979 509.869V509.835C317.979 509.4 317.856 509.064 317.611 508.825C317.369 508.587 317.008 508.467 316.527 508.467C316.027 508.467 315.632 508.578 315.344 508.8C315.059 509.019 314.862 509.263 314.752 509.531L313.355 509.213C313.521 508.749 313.763 508.375 314.081 508.089C314.403 507.801 314.772 507.592 315.19 507.463C315.608 507.33 316.047 507.264 316.507 507.264C316.812 507.264 317.136 507.301 317.477 507.374C317.822 507.443 318.143 507.572 318.441 507.761C318.743 507.95 318.99 508.22 319.182 508.572C319.374 508.92 319.471 509.372 319.471 509.929V515H318.019V513.956H317.959C317.863 514.148 317.719 514.337 317.527 514.523C317.334 514.708 317.087 514.862 316.786 514.985C316.484 515.108 316.123 515.169 315.702 515.169ZM316.025 513.976C316.436 513.976 316.788 513.895 317.079 513.732C317.374 513.57 317.598 513.358 317.75 513.096C317.906 512.831 317.984 512.547 317.984 512.246V511.261C317.931 511.314 317.828 511.364 317.676 511.411C317.527 511.454 317.356 511.492 317.164 511.525C316.971 511.555 316.784 511.583 316.602 511.609C316.42 511.633 316.267 511.652 316.145 511.669C315.856 511.705 315.593 511.767 315.354 511.853C315.119 511.939 314.93 512.063 314.787 512.226C314.648 512.385 314.578 512.597 314.578 512.862C314.578 513.23 314.714 513.509 314.986 513.697C315.258 513.883 315.604 513.976 316.025 513.976ZM321.45 515V507.364H322.877V508.607H322.972C323.131 508.186 323.391 507.857 323.752 507.622C324.114 507.384 324.546 507.264 325.05 507.264C325.56 507.264 325.988 507.384 326.333 507.622C326.681 507.861 326.937 508.189 327.103 508.607H327.183C327.365 508.199 327.655 507.874 328.053 507.632C328.45 507.387 328.924 507.264 329.475 507.264C330.167 507.264 330.732 507.481 331.17 507.915C331.611 508.35 331.831 509.004 331.831 509.879V515H330.345V510.018C330.345 509.501 330.204 509.127 329.922 508.895C329.64 508.663 329.304 508.547 328.913 508.547C328.429 508.547 328.053 508.696 327.784 508.994C327.516 509.289 327.382 509.669 327.382 510.133V515H325.9V509.924C325.9 509.51 325.771 509.177 325.512 508.925C325.254 508.673 324.917 508.547 324.503 508.547C324.221 508.547 323.961 508.621 323.722 508.771C323.487 508.916 323.297 509.12 323.151 509.382C323.008 509.644 322.937 509.947 322.937 510.292V515H321.45Z" fill="#9CB9CE"/>
<g filter="url(#filter1_d_46_5)">
<rect x="474" y="442" width="48" height="24" rx="12" fill="url(#paint5_radial_46_5)"/>
</g>
<g filter="url(#filter2_d_46_5)">
<rect x="502" y="446" width="16" height="16" rx="8" fill="white"/>
</g>
<defs>
<filter id="filter0_d_46_5" x="287" y="194" width="184" height="200" filterUnits="userSpaceOnUse" color-interpolation-filters="sRGB">
<feFlood flood-opacity="0" result="BackgroundImageFix"/>
<feColorMatrix in="SourceAlpha" type="matrix" values="0 0 0 0 0 0 0 0 0 0 0 0 0 0 0 0 0 0 127 0" result="hardAlpha"/>
<feOffset dy="9"/>
<feGaussianBlur stdDeviation="32"/>
<feComposite in2="hardAlpha" operator="out"/>
<feColorMatrix type="matrix" values="0 0 0 0 0 0 0 0 0 1 0 0 0 0 0.627531 0 0 0 0.48 0"/>
<feBlend mode="normal" in2="BackgroundImageFix" result="effect1_dropShadow_46_5"/>
<feBlend mode="normal" in="SourceGraphic" in2="effect1_dropShadow_46_5" result="shape"/>
</filter>
<filter id="filter1_d_46_5" x="410" y="387" width="176" height="152" filterUnits="userSpaceOnUse" color-interpolation-filters="sRGB">
<feFlood flood-opacity="0" result="BackgroundImageFix"/>
<feColorMatrix in="SourceAlpha" type="matrix" values="0 0 0 0 0 0 0 0 0 0 0 0 0 0 0 0 0 0 127 0" result="hardAlpha"/>
<feOffset dy="9"/>
<feGaussianBlur stdDeviation="32"/>
<feComposite in2="hardAlpha" operator="out"/>
<feColorMatrix type="matrix" values="0 0 0 0 0 0 0 0 0 1 0 0 0 0 0.627531 0 0 0 0.48 0"/>
<feBlend mode="normal" in2="BackgroundImageFix" result="effect1_dropShadow_46_5"/>
<feBlend mode="normal" in="SourceGraphic" in2="effect1_dropShadow_46_5" result="shape"/>
</filter>
<filter id="filter2_d_46_5" x="484" y="428" width="52" height="52" filterUnits="userSpaceOnUse" color-interpolation-filters="sRGB">
<feFlood flood-opacity="0" result="BackgroundImageFix"/>
<feColorMatrix in="SourceAlpha" type="matrix" values="0 0 0 0 0 0 0 0 0 0 0 0 0 0 0 0 0 0 127 0" result="hardAlpha"/>
<feMorphology radius="6" operator="dilate" in="SourceAlpha" result="effect1_dropShadow_46_5"/>
<feOffset/>
<feGaussianBlur stdDeviation="6"/>
<feComposite in2="hardAlpha" operator="out"/>
<feColorMatrix type="matrix" values="0 0 0 0 0.0156863 0 0 0 0 0.984314 0 0 0 0 0.623529 0 0 0 0.51 0"/>
<feBlend mode="normal" in2="BackgroundImageFix" result="effect1_dropShadow_46_5"/>
<feBlend mode="normal" in="SourceGraphic" in2="effect1_dropShadow_46_5" result="shape"/>
</filter>
<linearGradient id="paint0_linear_46_5" x1="0" y1="563" x2="307.625" y2="790.803" gradientUnits="userSpaceOnUse">
<stop stop-color="#251A0A"/>
<stop offset="0.651042" stop-color="#9F6C07" stop-opacity="0.62"/>
<stop offset="1" stop-color="#6D4A05" stop-opacity="0.33"/>
</linearGradient>
<linearGradient id="paint1_linear_46_5" x1="316.624" y1="578.6" x2="91.4961" y2="753.065" gradientUnits="userSpaceOnUse">
<stop stop-color="#9F6C07" stop-opacity="0"/>
<stop offset="1" stop-color="#9F6C07" stop-opacity="0.45"/>
</linearGradient>
<linearGradient id="paint2_linear_46_5" x1="685" y1="48" x2="764.807" y2="58.0594" gradientUnits="userSpaceOnUse">
<stop stop-color="#251A0A"/>
<stop offset="0.651042" stop-color="#9F6C07" stop-opacity="0.62"/>
<stop offset="1" stop-color="#6D4A05" stop-opacity="0.33"/>
</linearGradient>
<linearGradient id="paint3_linear_46_5" x1="738.893" y1="63.6" x2="678.609" y2="71.552" gradientUnits="userSpaceOnUse">
<stop stop-color="#9F6C07" stop-opacity="0"/>
<stop offset="1" stop-color="#9F6C07" stop-opacity="0.45"/>
</linearGradient>
<linearGradient id="paint4_linear_46_5" x1="379" y1="249" x2="407" y2="295" gradientUnits="userSpaceOnUse">
<stop stop-color="#04FB9F"/>
<stop offset="1" stop-color="#04FBEC" stop-opacity="0.58"/>
</linearGradient>
<radialGradient id="paint5_radial_46_5" cx="0" cy="0" r="1" gradientUnits="userSpaceOnUse" gradientTransform="translate(495.5 454) rotate(7.16936) scale(26.7088 21.2207)">
<stop stop-color="#08DF8F"/>
<stop offset="1" stop-color="#037C75"/>
</radialGradient>
</defs>
</svg>
