<svg width="856" height="563" viewBox="0 0 856 563" fill="none" xmlns="http://www.w3.org/2000/svg">
<g filter="url(#filter0_d_43_117)">
<rect x="128" y="96" width="600" height="307" rx="16" fill="url(#paint0_radial_43_117)"/>
</g>
<rect x="96" y="128" width="600" height="307" rx="16" fill="#10121E"/>
<path d="M96 144C96 135.163 103.163 128 112 128H680C688.837 128 696 135.163 696 144V179H96V144Z" fill="#161926"/>
<path d="M135.472 203.562C135.419 203.066 135.195 202.68 134.801 202.403C134.411 202.127 133.903 201.989 133.278 201.989C132.839 201.989 132.462 202.055 132.148 202.188C131.833 202.32 131.593 202.5 131.426 202.727C131.259 202.955 131.174 203.214 131.17 203.506C131.17 203.748 131.225 203.958 131.335 204.136C131.449 204.314 131.602 204.466 131.795 204.591C131.989 204.712 132.203 204.814 132.438 204.898C132.672 204.981 132.909 205.051 133.148 205.108L134.239 205.381C134.678 205.483 135.1 205.621 135.506 205.795C135.915 205.97 136.28 206.189 136.602 206.455C136.928 206.72 137.186 207.04 137.375 207.415C137.564 207.79 137.659 208.229 137.659 208.733C137.659 209.415 137.485 210.015 137.136 210.534C136.788 211.049 136.284 211.453 135.625 211.744C134.97 212.032 134.176 212.176 133.244 212.176C132.339 212.176 131.553 212.036 130.886 211.756C130.223 211.475 129.705 211.066 129.33 210.528C128.958 209.991 128.758 209.335 128.727 208.562H130.801C130.831 208.968 130.956 209.305 131.176 209.574C131.396 209.843 131.682 210.044 132.034 210.176C132.39 210.309 132.788 210.375 133.227 210.375C133.686 210.375 134.087 210.307 134.432 210.17C134.78 210.03 135.053 209.837 135.25 209.591C135.447 209.341 135.547 209.049 135.551 208.716C135.547 208.413 135.458 208.163 135.284 207.966C135.11 207.765 134.866 207.598 134.551 207.466C134.241 207.33 133.877 207.208 133.46 207.102L132.136 206.761C131.178 206.515 130.42 206.142 129.864 205.642C129.311 205.138 129.034 204.47 129.034 203.636C129.034 202.951 129.22 202.35 129.591 201.835C129.966 201.32 130.475 200.92 131.119 200.636C131.763 200.348 132.492 200.205 133.307 200.205C134.133 200.205 134.856 200.348 135.477 200.636C136.102 200.92 136.593 201.316 136.949 201.824C137.305 202.328 137.489 202.907 137.5 203.562H135.472ZM139.447 215.273V203.273H141.47V204.716H141.589C141.696 204.504 141.845 204.278 142.038 204.04C142.232 203.797 142.493 203.591 142.822 203.42C143.152 203.246 143.572 203.159 144.084 203.159C144.758 203.159 145.366 203.331 145.908 203.676C146.453 204.017 146.885 204.523 147.203 205.193C147.525 205.86 147.686 206.678 147.686 207.648C147.686 208.606 147.529 209.42 147.214 210.091C146.9 210.761 146.472 211.273 145.93 211.625C145.389 211.977 144.775 212.153 144.089 212.153C143.589 212.153 143.175 212.07 142.845 211.903C142.516 211.737 142.25 211.536 142.05 211.301C141.853 211.062 141.699 210.837 141.589 210.625H141.504V215.273H139.447ZM141.464 207.636C141.464 208.201 141.544 208.695 141.703 209.119C141.866 209.544 142.099 209.875 142.402 210.114C142.709 210.348 143.08 210.466 143.516 210.466C143.97 210.466 144.351 210.345 144.658 210.102C144.964 209.856 145.196 209.521 145.351 209.097C145.51 208.669 145.589 208.182 145.589 207.636C145.589 207.095 145.512 206.614 145.357 206.193C145.201 205.773 144.97 205.443 144.663 205.205C144.357 204.966 143.974 204.847 143.516 204.847C143.076 204.847 142.703 204.962 142.396 205.193C142.089 205.424 141.857 205.748 141.697 206.165C141.542 206.581 141.464 207.072 141.464 207.636ZM151.959 212.176C151.406 212.176 150.908 212.078 150.464 211.881C150.025 211.68 149.677 211.384 149.419 210.994C149.165 210.604 149.038 210.123 149.038 209.551C149.038 209.059 149.129 208.652 149.311 208.33C149.493 208.008 149.741 207.75 150.055 207.557C150.37 207.364 150.724 207.218 151.118 207.119C151.516 207.017 151.927 206.943 152.351 206.898C152.862 206.845 153.277 206.797 153.595 206.756C153.913 206.71 154.144 206.642 154.288 206.551C154.436 206.456 154.51 206.311 154.51 206.114V206.08C154.51 205.652 154.383 205.32 154.129 205.085C153.875 204.85 153.51 204.733 153.033 204.733C152.529 204.733 152.129 204.843 151.834 205.062C151.542 205.282 151.345 205.542 151.243 205.841L149.322 205.568C149.474 205.038 149.724 204.595 150.072 204.239C150.421 203.879 150.847 203.61 151.351 203.432C151.855 203.25 152.411 203.159 153.021 203.159C153.442 203.159 153.86 203.208 154.277 203.307C154.694 203.405 155.074 203.568 155.419 203.795C155.764 204.019 156.04 204.324 156.249 204.71C156.461 205.097 156.567 205.58 156.567 206.159V212H154.589V210.801H154.521C154.396 211.044 154.22 211.271 153.993 211.483C153.769 211.691 153.487 211.86 153.146 211.989C152.809 212.114 152.413 212.176 151.959 212.176ZM152.493 210.665C152.906 210.665 153.264 210.583 153.567 210.42C153.87 210.254 154.103 210.034 154.266 209.761C154.432 209.489 154.516 209.191 154.516 208.869V207.841C154.451 207.894 154.341 207.943 154.186 207.989C154.035 208.034 153.864 208.074 153.675 208.108C153.485 208.142 153.298 208.172 153.112 208.199C152.927 208.225 152.766 208.248 152.629 208.267C152.322 208.309 152.048 208.377 151.805 208.472C151.563 208.566 151.372 208.699 151.232 208.869C151.091 209.036 151.021 209.252 151.021 209.517C151.021 209.896 151.16 210.182 151.436 210.375C151.713 210.568 152.065 210.665 152.493 210.665ZM158.635 212V203.273H160.601V204.756H160.703C160.885 204.256 161.186 203.866 161.607 203.585C162.027 203.301 162.529 203.159 163.112 203.159C163.703 203.159 164.201 203.303 164.607 203.591C165.016 203.875 165.304 204.263 165.47 204.756H165.561C165.754 204.271 166.08 203.884 166.538 203.597C167 203.305 167.548 203.159 168.18 203.159C168.983 203.159 169.639 203.413 170.146 203.92C170.654 204.428 170.908 205.169 170.908 206.142V212H168.845V206.46C168.845 205.919 168.701 205.523 168.413 205.273C168.125 205.019 167.773 204.892 167.357 204.892C166.86 204.892 166.472 205.047 166.192 205.358C165.915 205.665 165.777 206.064 165.777 206.557V212H163.76V206.375C163.76 205.924 163.624 205.564 163.351 205.295C163.082 205.027 162.73 204.892 162.294 204.892C161.999 204.892 161.73 204.968 161.487 205.119C161.245 205.267 161.052 205.477 160.908 205.75C160.764 206.019 160.692 206.333 160.692 206.693V212H158.635Z" fill="white"/>
<path d="M130.642 159H128.392L132.489 147.364H135.091L139.193 159H136.943L133.835 149.75H133.744L130.642 159ZM130.716 154.438H136.852V156.131H130.716V154.438ZM146.197 155.33V150.273H148.254V159H146.26V157.449H146.169C145.972 157.937 145.648 158.337 145.197 158.648C144.75 158.958 144.199 159.114 143.544 159.114C142.972 159.114 142.466 158.987 142.027 158.733C141.591 158.475 141.25 158.102 141.004 157.614C140.758 157.121 140.635 156.527 140.635 155.83V150.273H142.692V155.511C142.692 156.064 142.843 156.504 143.146 156.83C143.449 157.155 143.847 157.318 144.339 157.318C144.643 157.318 144.936 157.244 145.22 157.097C145.504 156.949 145.737 156.729 145.919 156.438C146.105 156.142 146.197 155.773 146.197 155.33ZM154.727 150.273V151.864H149.71V150.273H154.727ZM150.949 148.182H153.006V156.375C153.006 156.652 153.047 156.864 153.131 157.011C153.218 157.155 153.331 157.254 153.472 157.307C153.612 157.36 153.767 157.386 153.938 157.386C154.066 157.386 154.184 157.377 154.29 157.358C154.4 157.339 154.483 157.322 154.54 157.307L154.886 158.915C154.777 158.953 154.619 158.994 154.415 159.04C154.214 159.085 153.968 159.112 153.676 159.119C153.161 159.134 152.697 159.057 152.284 158.886C151.871 158.712 151.544 158.443 151.301 158.08C151.063 157.716 150.945 157.261 150.949 156.716V148.182ZM160.161 159.17C159.308 159.17 158.57 158.983 157.945 158.608C157.32 158.233 156.835 157.708 156.49 157.034C156.149 156.36 155.979 155.572 155.979 154.67C155.979 153.769 156.149 152.979 156.49 152.301C156.835 151.623 157.32 151.097 157.945 150.722C158.57 150.347 159.308 150.159 160.161 150.159C161.013 150.159 161.751 150.347 162.376 150.722C163.001 151.097 163.484 151.623 163.825 152.301C164.17 152.979 164.342 153.769 164.342 154.67C164.342 155.572 164.17 156.36 163.825 157.034C163.484 157.708 163.001 158.233 162.376 158.608C161.751 158.983 161.013 159.17 160.161 159.17ZM160.172 157.523C160.634 157.523 161.02 157.396 161.331 157.142C161.642 156.884 161.873 156.54 162.024 156.108C162.179 155.676 162.257 155.195 162.257 154.665C162.257 154.131 162.179 153.648 162.024 153.216C161.873 152.78 161.642 152.434 161.331 152.176C161.02 151.919 160.634 151.79 160.172 151.79C159.698 151.79 159.304 151.919 158.99 152.176C158.679 152.434 158.446 152.78 158.291 153.216C158.14 153.648 158.064 154.131 158.064 154.665C158.064 155.195 158.14 155.676 158.291 156.108C158.446 156.54 158.679 156.884 158.99 157.142C159.304 157.396 159.698 157.523 160.172 157.523ZM166.179 147.364H168.759L172.213 155.795H172.349L175.804 147.364H178.384V159H176.361V151.006H176.253L173.037 158.966H171.526L168.31 150.989H168.202V159H166.179V147.364ZM184.395 159.17C183.543 159.17 182.804 158.983 182.179 158.608C181.554 158.233 181.069 157.708 180.724 157.034C180.384 156.36 180.213 155.572 180.213 154.67C180.213 153.769 180.384 152.979 180.724 152.301C181.069 151.623 181.554 151.097 182.179 150.722C182.804 150.347 183.543 150.159 184.395 150.159C185.247 150.159 185.986 150.347 186.611 150.722C187.236 151.097 187.719 151.623 188.06 152.301C188.404 152.979 188.577 153.769 188.577 154.67C188.577 155.572 188.404 156.36 188.06 157.034C187.719 157.708 187.236 158.233 186.611 158.608C185.986 158.983 185.247 159.17 184.395 159.17ZM184.406 157.523C184.868 157.523 185.255 157.396 185.565 157.142C185.876 156.884 186.107 156.54 186.259 156.108C186.414 155.676 186.491 155.195 186.491 154.665C186.491 154.131 186.414 153.648 186.259 153.216C186.107 152.78 185.876 152.434 185.565 152.176C185.255 151.919 184.868 151.79 184.406 151.79C183.933 151.79 183.539 151.919 183.224 152.176C182.914 152.434 182.681 152.78 182.526 153.216C182.374 153.648 182.298 154.131 182.298 154.665C182.298 155.195 182.374 155.676 182.526 156.108C182.681 156.54 182.914 156.884 183.224 157.142C183.539 157.396 183.933 157.523 184.406 157.523ZM193.561 159.153C192.875 159.153 192.262 158.977 191.72 158.625C191.179 158.273 190.75 157.761 190.436 157.091C190.122 156.42 189.964 155.606 189.964 154.648C189.964 153.678 190.124 152.86 190.442 152.193C190.764 151.523 191.197 151.017 191.743 150.676C192.288 150.331 192.896 150.159 193.567 150.159C194.078 150.159 194.499 150.246 194.828 150.42C195.158 150.591 195.419 150.797 195.612 151.04C195.805 151.278 195.955 151.504 196.061 151.716H196.146V147.364H198.209V159H196.186V157.625H196.061C195.955 157.837 195.802 158.062 195.601 158.301C195.4 158.536 195.135 158.737 194.805 158.903C194.476 159.07 194.061 159.153 193.561 159.153ZM194.135 157.466C194.571 157.466 194.942 157.348 195.249 157.114C195.555 156.875 195.788 156.544 195.947 156.119C196.107 155.695 196.186 155.201 196.186 154.636C196.186 154.072 196.107 153.581 195.947 153.165C195.792 152.748 195.561 152.424 195.254 152.193C194.951 151.962 194.578 151.847 194.135 151.847C193.677 151.847 193.294 151.966 192.987 152.205C192.68 152.443 192.449 152.773 192.294 153.193C192.139 153.614 192.061 154.095 192.061 154.636C192.061 155.182 192.139 155.669 192.294 156.097C192.453 156.521 192.686 156.856 192.993 157.102C193.304 157.345 193.684 157.466 194.135 157.466Z" fill="white"/>
<path d="M191.278 200.364H193.409L197.114 209.409H197.25L200.955 200.364H203.085V212H201.415V203.58H201.307L197.875 211.983H196.489L193.057 203.574H192.949V212H191.278V200.364ZM208.041 212.193C207.488 212.193 206.988 212.091 206.541 211.886C206.094 211.678 205.74 211.377 205.479 210.983C205.221 210.589 205.092 210.106 205.092 209.534C205.092 209.042 205.187 208.636 205.376 208.318C205.566 208 205.821 207.748 206.143 207.562C206.465 207.377 206.825 207.237 207.223 207.142C207.621 207.047 208.026 206.975 208.439 206.926C208.962 206.866 209.386 206.816 209.712 206.778C210.037 206.737 210.274 206.67 210.422 206.58C210.57 206.489 210.643 206.341 210.643 206.136V206.097C210.643 205.6 210.503 205.216 210.223 204.943C209.946 204.67 209.534 204.534 208.984 204.534C208.412 204.534 207.962 204.661 207.632 204.915C207.306 205.165 207.081 205.443 206.956 205.75L205.359 205.386C205.549 204.856 205.825 204.428 206.189 204.102C206.556 203.773 206.979 203.534 207.456 203.386C207.933 203.235 208.435 203.159 208.962 203.159C209.31 203.159 209.679 203.201 210.07 203.284C210.464 203.364 210.831 203.511 211.172 203.727C211.517 203.943 211.799 204.252 212.018 204.653C212.238 205.051 212.348 205.568 212.348 206.205V212H210.689V210.807H210.621C210.511 211.027 210.346 211.242 210.126 211.455C209.907 211.667 209.625 211.843 209.28 211.983C208.935 212.123 208.522 212.193 208.041 212.193ZM208.411 210.83C208.88 210.83 209.282 210.737 209.615 210.551C209.952 210.366 210.208 210.123 210.382 209.824C210.56 209.521 210.649 209.197 210.649 208.852V207.727C210.589 207.788 210.471 207.845 210.297 207.898C210.126 207.947 209.931 207.991 209.712 208.028C209.492 208.062 209.278 208.095 209.07 208.125C208.861 208.152 208.687 208.174 208.547 208.193C208.217 208.235 207.916 208.305 207.643 208.403C207.375 208.502 207.159 208.644 206.996 208.83C206.837 209.011 206.757 209.254 206.757 209.557C206.757 209.977 206.912 210.295 207.223 210.511C207.534 210.723 207.929 210.83 208.411 210.83ZM221.151 205.403L219.611 205.676C219.546 205.479 219.444 205.292 219.304 205.114C219.168 204.936 218.982 204.79 218.747 204.676C218.512 204.562 218.219 204.506 217.866 204.506C217.385 204.506 216.984 204.614 216.662 204.83C216.34 205.042 216.179 205.316 216.179 205.653C216.179 205.945 216.287 206.18 216.503 206.358C216.719 206.536 217.067 206.682 217.548 206.795L218.935 207.114C219.738 207.299 220.336 207.585 220.73 207.972C221.124 208.358 221.321 208.86 221.321 209.477C221.321 210 221.17 210.466 220.866 210.875C220.567 211.28 220.149 211.598 219.611 211.83C219.077 212.061 218.457 212.176 217.753 212.176C216.776 212.176 215.978 211.968 215.361 211.551C214.743 211.131 214.365 210.534 214.224 209.761L215.866 209.511C215.969 209.939 216.179 210.263 216.497 210.483C216.815 210.699 217.23 210.807 217.741 210.807C218.298 210.807 218.743 210.691 219.077 210.46C219.41 210.225 219.577 209.939 219.577 209.602C219.577 209.33 219.474 209.1 219.27 208.915C219.069 208.729 218.76 208.589 218.344 208.494L216.866 208.17C216.052 207.985 215.45 207.689 215.06 207.284C214.673 206.879 214.48 206.366 214.48 205.744C214.48 205.229 214.624 204.778 214.912 204.392C215.2 204.006 215.598 203.705 216.105 203.489C216.613 203.269 217.194 203.159 217.849 203.159C218.793 203.159 219.535 203.364 220.077 203.773C220.618 204.178 220.976 204.722 221.151 205.403ZM229.729 205.403L228.189 205.676C228.125 205.479 228.022 205.292 227.882 205.114C227.746 204.936 227.56 204.79 227.325 204.676C227.09 204.562 226.797 204.506 226.445 204.506C225.964 204.506 225.562 204.614 225.24 204.83C224.918 205.042 224.757 205.316 224.757 205.653C224.757 205.945 224.865 206.18 225.081 206.358C225.297 206.536 225.645 206.682 226.126 206.795L227.513 207.114C228.316 207.299 228.914 207.585 229.308 207.972C229.702 208.358 229.899 208.86 229.899 209.477C229.899 210 229.748 210.466 229.445 210.875C229.145 211.28 228.727 211.598 228.189 211.83C227.655 212.061 227.036 212.176 226.331 212.176C225.354 212.176 224.556 211.968 223.939 211.551C223.321 211.131 222.943 210.534 222.803 209.761L224.445 209.511C224.547 209.939 224.757 210.263 225.075 210.483C225.393 210.699 225.808 210.807 226.32 210.807C226.876 210.807 227.321 210.691 227.655 210.46C227.988 210.225 228.155 209.939 228.155 209.602C228.155 209.33 228.053 209.1 227.848 208.915C227.647 208.729 227.339 208.589 226.922 208.494L225.445 208.17C224.63 207.985 224.028 207.689 223.638 207.284C223.251 206.879 223.058 206.366 223.058 205.744C223.058 205.229 223.202 204.778 223.49 204.392C223.778 204.006 224.176 203.705 224.683 203.489C225.191 203.269 225.772 203.159 226.428 203.159C227.371 203.159 228.113 203.364 228.655 203.773C229.196 204.178 229.554 204.722 229.729 205.403ZM245.803 204.148H244.03C243.962 203.769 243.835 203.436 243.649 203.148C243.464 202.86 243.236 202.616 242.967 202.415C242.698 202.214 242.397 202.062 242.064 201.96C241.734 201.858 241.384 201.807 241.013 201.807C240.342 201.807 239.742 201.975 239.212 202.312C238.685 202.65 238.268 203.144 237.962 203.795C237.659 204.447 237.507 205.242 237.507 206.182C237.507 207.129 237.659 207.928 237.962 208.58C238.268 209.231 238.687 209.723 239.217 210.057C239.748 210.39 240.344 210.557 241.007 210.557C241.375 210.557 241.723 210.508 242.053 210.409C242.386 210.307 242.687 210.157 242.956 209.96C243.225 209.763 243.452 209.523 243.638 209.239C243.827 208.951 243.958 208.621 244.03 208.25L245.803 208.256C245.708 208.828 245.524 209.354 245.251 209.835C244.982 210.312 244.636 210.725 244.212 211.074C243.791 211.419 243.31 211.686 242.768 211.875C242.227 212.064 241.636 212.159 240.996 212.159C239.988 212.159 239.09 211.92 238.303 211.443C237.515 210.962 236.893 210.275 236.439 209.381C235.988 208.487 235.763 207.42 235.763 206.182C235.763 204.939 235.99 203.873 236.445 202.983C236.899 202.089 237.52 201.403 238.308 200.926C239.096 200.445 239.992 200.205 240.996 200.205C241.613 200.205 242.189 200.294 242.723 200.472C243.261 200.646 243.744 200.903 244.172 201.244C244.6 201.581 244.954 201.994 245.234 202.483C245.515 202.968 245.704 203.523 245.803 204.148ZM250.307 212.193C249.754 212.193 249.254 212.091 248.807 211.886C248.36 211.678 248.006 211.377 247.744 210.983C247.487 210.589 247.358 210.106 247.358 209.534C247.358 209.042 247.453 208.636 247.642 208.318C247.831 208 248.087 207.748 248.409 207.562C248.731 207.377 249.091 207.237 249.489 207.142C249.886 207.047 250.292 206.975 250.705 206.926C251.227 206.866 251.652 206.816 251.977 206.778C252.303 206.737 252.54 206.67 252.688 206.58C252.835 206.489 252.909 206.341 252.909 206.136V206.097C252.909 205.6 252.769 205.216 252.489 204.943C252.212 204.67 251.799 204.534 251.25 204.534C250.678 204.534 250.227 204.661 249.898 204.915C249.572 205.165 249.347 205.443 249.222 205.75L247.625 205.386C247.814 204.856 248.091 204.428 248.455 204.102C248.822 203.773 249.244 203.534 249.722 203.386C250.199 203.235 250.701 203.159 251.227 203.159C251.576 203.159 251.945 203.201 252.335 203.284C252.729 203.364 253.097 203.511 253.438 203.727C253.782 203.943 254.064 204.252 254.284 204.653C254.504 205.051 254.614 205.568 254.614 206.205V212H252.955V210.807H252.886C252.777 211.027 252.612 211.242 252.392 211.455C252.172 211.667 251.89 211.843 251.545 211.983C251.201 212.123 250.788 212.193 250.307 212.193ZM250.676 210.83C251.146 210.83 251.547 210.737 251.881 210.551C252.218 210.366 252.473 210.123 252.648 209.824C252.826 209.521 252.915 209.197 252.915 208.852V207.727C252.854 207.788 252.737 207.845 252.562 207.898C252.392 207.947 252.197 207.991 251.977 208.028C251.758 208.062 251.544 208.095 251.335 208.125C251.127 208.152 250.953 208.174 250.812 208.193C250.483 208.235 250.182 208.305 249.909 208.403C249.64 208.502 249.424 208.644 249.261 208.83C249.102 209.011 249.023 209.254 249.023 209.557C249.023 209.977 249.178 210.295 249.489 210.511C249.799 210.723 250.195 210.83 250.676 210.83ZM256.876 215.273V203.273H258.536V204.688H258.678C258.776 204.506 258.918 204.295 259.104 204.057C259.289 203.818 259.547 203.61 259.876 203.432C260.206 203.25 260.642 203.159 261.183 203.159C261.888 203.159 262.517 203.337 263.07 203.693C263.623 204.049 264.056 204.562 264.371 205.233C264.689 205.903 264.848 206.71 264.848 207.653C264.848 208.597 264.691 209.405 264.376 210.08C264.062 210.75 263.63 211.267 263.081 211.631C262.532 211.991 261.905 212.17 261.2 212.17C260.67 212.17 260.236 212.081 259.899 211.903C259.566 211.725 259.304 211.517 259.115 211.278C258.926 211.04 258.78 210.828 258.678 210.642H258.575V215.273H256.876ZM258.541 207.636C258.541 208.25 258.63 208.788 258.808 209.25C258.986 209.712 259.244 210.074 259.581 210.335C259.918 210.593 260.331 210.722 260.82 210.722C261.327 210.722 261.751 210.587 262.092 210.318C262.433 210.045 262.691 209.676 262.865 209.21C263.043 208.744 263.132 208.22 263.132 207.636C263.132 207.061 263.045 206.544 262.871 206.085C262.7 205.627 262.443 205.265 262.098 205C261.757 204.735 261.331 204.602 260.82 204.602C260.327 204.602 259.911 204.729 259.57 204.983C259.232 205.237 258.977 205.591 258.803 206.045C258.628 206.5 258.541 207.03 258.541 207.636ZM273.291 205.403L271.751 205.676C271.687 205.479 271.585 205.292 271.445 205.114C271.308 204.936 271.123 204.79 270.888 204.676C270.653 204.562 270.359 204.506 270.007 204.506C269.526 204.506 269.125 204.614 268.803 204.83C268.481 205.042 268.32 205.316 268.32 205.653C268.32 205.945 268.428 206.18 268.643 206.358C268.859 206.536 269.208 206.682 269.689 206.795L271.075 207.114C271.878 207.299 272.477 207.585 272.871 207.972C273.265 208.358 273.462 208.86 273.462 209.477C273.462 210 273.31 210.466 273.007 210.875C272.708 211.28 272.289 211.598 271.751 211.83C271.217 212.061 270.598 212.176 269.893 212.176C268.916 212.176 268.119 211.968 267.501 211.551C266.884 211.131 266.505 210.534 266.365 209.761L268.007 209.511C268.109 209.939 268.32 210.263 268.638 210.483C268.956 210.699 269.371 210.807 269.882 210.807C270.439 210.807 270.884 210.691 271.217 210.46C271.551 210.225 271.717 209.939 271.717 209.602C271.717 209.33 271.615 209.1 271.411 208.915C271.21 208.729 270.901 208.589 270.484 208.494L269.007 208.17C268.193 207.985 267.59 207.689 267.2 207.284C266.814 206.879 266.621 206.366 266.621 205.744C266.621 205.229 266.765 204.778 267.053 204.392C267.34 204.006 267.738 203.705 268.246 203.489C268.753 203.269 269.335 203.159 269.99 203.159C270.933 203.159 271.676 203.364 272.217 203.773C272.759 204.178 273.117 204.722 273.291 205.403Z" fill="#9CB9CE"/>
<path d="M296.034 200.364V212H294.278V200.364H296.034ZM300.153 206.818V212H298.455V203.273H300.085V204.693H300.193C300.394 204.231 300.708 203.86 301.136 203.58C301.568 203.299 302.112 203.159 302.767 203.159C303.362 203.159 303.883 203.284 304.33 203.534C304.777 203.78 305.123 204.148 305.369 204.636C305.616 205.125 305.739 205.729 305.739 206.449V212H304.04V206.653C304.04 206.021 303.875 205.527 303.545 205.17C303.216 204.811 302.763 204.631 302.188 204.631C301.794 204.631 301.443 204.716 301.136 204.886C300.833 205.057 300.593 205.307 300.415 205.636C300.241 205.962 300.153 206.356 300.153 206.818ZM315.17 203.273L312.006 212H310.188L307.017 203.273H308.841L311.051 209.989H311.142L313.347 203.273H315.17ZM316.767 212V203.273H318.466V212H316.767ZM317.625 201.926C317.33 201.926 317.076 201.828 316.864 201.631C316.655 201.43 316.551 201.191 316.551 200.915C316.551 200.634 316.655 200.396 316.864 200.199C317.076 199.998 317.33 199.898 317.625 199.898C317.92 199.898 318.172 199.998 318.381 200.199C318.593 200.396 318.699 200.634 318.699 200.915C318.699 201.191 318.593 201.43 318.381 201.631C318.172 201.828 317.92 201.926 317.625 201.926ZM324.825 203.273V204.636H320.058V203.273H324.825ZM321.337 201.182H323.036V209.438C323.036 209.767 323.085 210.015 323.183 210.182C323.282 210.345 323.409 210.456 323.564 210.517C323.723 210.574 323.895 210.602 324.081 210.602C324.217 210.602 324.337 210.593 324.439 210.574C324.541 210.555 324.621 210.54 324.678 210.528L324.984 211.932C324.886 211.97 324.746 212.008 324.564 212.045C324.382 212.087 324.155 212.11 323.882 212.114C323.435 212.121 323.018 212.042 322.632 211.875C322.246 211.708 321.933 211.451 321.695 211.102C321.456 210.754 321.337 210.316 321.337 209.79V201.182ZM330.372 212.176C329.512 212.176 328.772 211.992 328.151 211.625C327.533 211.254 327.056 210.733 326.719 210.062C326.385 209.388 326.219 208.598 326.219 207.693C326.219 206.799 326.385 206.011 326.719 205.33C327.056 204.648 327.526 204.116 328.128 203.733C328.734 203.35 329.442 203.159 330.253 203.159C330.745 203.159 331.223 203.241 331.685 203.403C332.147 203.566 332.562 203.822 332.929 204.17C333.296 204.519 333.586 204.972 333.798 205.528C334.01 206.081 334.116 206.754 334.116 207.545V208.148H327.179V206.875H332.452C332.452 206.428 332.361 206.032 332.179 205.688C331.997 205.339 331.741 205.064 331.412 204.864C331.086 204.663 330.704 204.562 330.264 204.562C329.787 204.562 329.37 204.68 329.014 204.915C328.662 205.146 328.389 205.449 328.196 205.824C328.007 206.195 327.912 206.598 327.912 207.034V208.028C327.912 208.612 328.014 209.108 328.219 209.517C328.427 209.926 328.717 210.239 329.088 210.455C329.459 210.667 329.893 210.773 330.389 210.773C330.711 210.773 331.005 210.727 331.27 210.636C331.535 210.542 331.764 210.402 331.957 210.216C332.151 210.03 332.298 209.801 332.401 209.528L334.009 209.818C333.88 210.292 333.649 210.706 333.315 211.062C332.986 211.415 332.571 211.689 332.071 211.886C331.575 212.08 331.009 212.176 330.372 212.176ZM342.541 205.403L341.001 205.676C340.937 205.479 340.835 205.292 340.695 205.114C340.558 204.936 340.373 204.79 340.138 204.676C339.903 204.562 339.609 204.506 339.257 204.506C338.776 204.506 338.375 204.614 338.053 204.83C337.731 205.042 337.57 205.316 337.57 205.653C337.57 205.945 337.678 206.18 337.893 206.358C338.109 206.536 338.458 206.682 338.939 206.795L340.325 207.114C341.128 207.299 341.727 207.585 342.121 207.972C342.515 208.358 342.712 208.86 342.712 209.477C342.712 210 342.56 210.466 342.257 210.875C341.958 211.28 341.539 211.598 341.001 211.83C340.467 212.061 339.848 212.176 339.143 212.176C338.166 212.176 337.369 211.968 336.751 211.551C336.134 211.131 335.755 210.534 335.615 209.761L337.257 209.511C337.359 209.939 337.57 210.263 337.888 210.483C338.206 210.699 338.621 210.807 339.132 210.807C339.689 210.807 340.134 210.691 340.467 210.46C340.801 210.225 340.967 209.939 340.967 209.602C340.967 209.33 340.865 209.1 340.661 208.915C340.46 208.729 340.151 208.589 339.734 208.494L338.257 208.17C337.443 207.985 336.84 207.689 336.45 207.284C336.064 206.879 335.871 206.366 335.871 205.744C335.871 205.229 336.015 204.778 336.303 204.392C336.59 204.006 336.988 203.705 337.496 203.489C338.003 203.269 338.585 203.159 339.24 203.159C340.183 203.159 340.926 203.364 341.467 203.773C342.009 204.178 342.367 204.722 342.541 205.403Z" fill="#9CB9CE"/>
<path d="M363.278 200.364H365.409L369.114 209.409H369.25L372.955 200.364H375.085V212H373.415V203.58H373.307L369.875 211.983H368.489L365.057 203.574H364.949V212H363.278V200.364ZM381.263 212.176C380.403 212.176 379.662 211.992 379.041 211.625C378.424 211.254 377.946 210.733 377.609 210.062C377.276 209.388 377.109 208.598 377.109 207.693C377.109 206.799 377.276 206.011 377.609 205.33C377.946 204.648 378.416 204.116 379.018 203.733C379.625 203.35 380.333 203.159 381.143 203.159C381.636 203.159 382.113 203.241 382.575 203.403C383.037 203.566 383.452 203.822 383.82 204.17C384.187 204.519 384.477 204.972 384.689 205.528C384.901 206.081 385.007 206.754 385.007 207.545V208.148H378.07V206.875H383.342C383.342 206.428 383.251 206.032 383.07 205.688C382.888 205.339 382.632 205.064 382.303 204.864C381.977 204.663 381.594 204.562 381.155 204.562C380.678 204.562 380.261 204.68 379.905 204.915C379.553 205.146 379.28 205.449 379.087 205.824C378.897 206.195 378.803 206.598 378.803 207.034V208.028C378.803 208.612 378.905 209.108 379.109 209.517C379.318 209.926 379.607 210.239 379.979 210.455C380.35 210.667 380.784 210.773 381.28 210.773C381.602 210.773 381.895 210.727 382.161 210.636C382.426 210.542 382.655 210.402 382.848 210.216C383.041 210.03 383.189 209.801 383.291 209.528L384.899 209.818C384.77 210.292 384.539 210.706 384.206 211.062C383.876 211.415 383.462 211.689 382.962 211.886C382.465 212.08 381.899 212.176 381.263 212.176ZM388.591 206.818V212H386.892V203.273H388.523V204.693H388.631C388.831 204.231 389.146 203.86 389.574 203.58C390.006 203.299 390.549 203.159 391.205 203.159C391.799 203.159 392.32 203.284 392.767 203.534C393.214 203.78 393.561 204.148 393.807 204.636C394.053 205.125 394.176 205.729 394.176 206.449V212H392.477V206.653C392.477 206.021 392.313 205.527 391.983 205.17C391.653 204.811 391.201 204.631 390.625 204.631C390.231 204.631 389.881 204.716 389.574 204.886C389.271 205.057 389.03 205.307 388.852 205.636C388.678 205.962 388.591 206.356 388.591 206.818ZM400.528 203.273V204.636H395.761V203.273H400.528ZM397.04 201.182H398.739V209.438C398.739 209.767 398.788 210.015 398.886 210.182C398.985 210.345 399.112 210.456 399.267 210.517C399.426 210.574 399.598 210.602 399.784 210.602C399.92 210.602 400.04 210.593 400.142 210.574C400.244 210.555 400.324 210.54 400.381 210.528L400.688 211.932C400.589 211.97 400.449 212.008 400.267 212.045C400.085 212.087 399.858 212.11 399.585 212.114C399.138 212.121 398.722 212.042 398.335 211.875C397.949 211.708 397.636 211.451 397.398 211.102C397.159 210.754 397.04 210.316 397.04 209.79V201.182ZM402.408 212V203.273H404.107V212H402.408ZM403.266 201.926C402.97 201.926 402.716 201.828 402.504 201.631C402.296 201.43 402.192 201.191 402.192 200.915C402.192 200.634 402.296 200.396 402.504 200.199C402.716 199.998 402.97 199.898 403.266 199.898C403.561 199.898 403.813 199.998 404.021 200.199C404.233 200.396 404.339 200.634 404.339 200.915C404.339 201.191 404.233 201.43 404.021 201.631C403.813 201.828 403.561 201.926 403.266 201.926ZM410.068 212.176C409.25 212.176 408.536 211.989 407.926 211.614C407.316 211.239 406.843 210.714 406.506 210.04C406.169 209.366 406 208.578 406 207.676C406 206.771 406.169 205.979 406.506 205.301C406.843 204.623 407.316 204.097 407.926 203.722C408.536 203.347 409.25 203.159 410.068 203.159C410.886 203.159 411.6 203.347 412.21 203.722C412.82 204.097 413.294 204.623 413.631 205.301C413.968 205.979 414.136 206.771 414.136 207.676C414.136 208.578 413.968 209.366 413.631 210.04C413.294 210.714 412.82 211.239 412.21 211.614C411.6 211.989 410.886 212.176 410.068 212.176ZM410.074 210.75C410.604 210.75 411.044 210.61 411.392 210.33C411.741 210.049 411.998 209.676 412.165 209.21C412.335 208.744 412.42 208.231 412.42 207.67C412.42 207.114 412.335 206.602 412.165 206.136C411.998 205.667 411.741 205.29 411.392 205.006C411.044 204.722 410.604 204.58 410.074 204.58C409.54 204.58 409.097 204.722 408.744 205.006C408.396 205.29 408.136 205.667 407.966 206.136C407.799 206.602 407.716 207.114 407.716 207.67C407.716 208.231 407.799 208.744 407.966 209.21C408.136 209.676 408.396 210.049 408.744 210.33C409.097 210.61 409.54 210.75 410.074 210.75ZM417.732 206.818V212H416.033V203.273H417.663V204.693H417.771C417.972 204.231 418.286 203.86 418.714 203.58C419.146 203.299 419.69 203.159 420.345 203.159C420.94 203.159 421.461 203.284 421.908 203.534C422.355 203.78 422.701 204.148 422.947 204.636C423.194 205.125 423.317 205.729 423.317 206.449V212H421.618V206.653C421.618 206.021 421.453 205.527 421.124 205.17C420.794 204.811 420.341 204.631 419.766 204.631C419.372 204.631 419.021 204.716 418.714 204.886C418.411 205.057 418.171 205.307 417.993 205.636C417.819 205.962 417.732 206.356 417.732 206.818Z" fill="#9CB9CE"/>
<path d="M444.278 212V200.364H446.034V210.489H451.307V212H444.278ZM453.173 212V203.273H454.872V212H453.173ZM454.031 201.926C453.736 201.926 453.482 201.828 453.27 201.631C453.062 201.43 452.957 201.191 452.957 200.915C452.957 200.634 453.062 200.396 453.27 200.199C453.482 199.998 453.736 199.898 454.031 199.898C454.327 199.898 454.579 199.998 454.787 200.199C454.999 200.396 455.105 200.634 455.105 200.915C455.105 201.191 454.999 201.43 454.787 201.631C454.579 201.828 454.327 201.926 454.031 201.926ZM458.857 206.818V212H457.158V203.273H458.788V204.693H458.896C459.097 204.231 459.411 203.86 459.839 203.58C460.271 203.299 460.815 203.159 461.47 203.159C462.065 203.159 462.586 203.284 463.033 203.534C463.48 203.78 463.826 204.148 464.072 204.636C464.319 205.125 464.442 205.729 464.442 206.449V212H462.743V206.653C462.743 206.021 462.578 205.527 462.249 205.17C461.919 204.811 461.466 204.631 460.891 204.631C460.497 204.631 460.146 204.716 459.839 204.886C459.536 205.057 459.296 205.307 459.118 205.636C458.944 205.962 458.857 206.356 458.857 206.818ZM468.283 209.04L468.271 206.966H468.567L472.044 203.273H474.078L470.112 207.477H469.845L468.283 209.04ZM466.72 212V200.364H468.419V212H466.72ZM472.232 212L469.107 207.852L470.277 206.665L474.317 212H472.232ZM482.166 205.403L480.626 205.676C480.562 205.479 480.46 205.292 480.32 205.114C480.183 204.936 479.998 204.79 479.763 204.676C479.528 204.562 479.234 204.506 478.882 204.506C478.401 204.506 478 204.614 477.678 204.83C477.356 205.042 477.195 205.316 477.195 205.653C477.195 205.945 477.303 206.18 477.518 206.358C477.734 206.536 478.083 206.682 478.564 206.795L479.95 207.114C480.753 207.299 481.352 207.585 481.746 207.972C482.14 208.358 482.337 208.86 482.337 209.477C482.337 210 482.185 210.466 481.882 210.875C481.583 211.28 481.164 211.598 480.626 211.83C480.092 212.061 479.473 212.176 478.768 212.176C477.791 212.176 476.994 211.968 476.376 211.551C475.759 211.131 475.38 210.534 475.24 209.761L476.882 209.511C476.984 209.939 477.195 210.263 477.513 210.483C477.831 210.699 478.246 210.807 478.757 210.807C479.314 210.807 479.759 210.691 480.092 210.46C480.426 210.225 480.592 209.939 480.592 209.602C480.592 209.33 480.49 209.1 480.286 208.915C480.085 208.729 479.776 208.589 479.359 208.494L477.882 208.17C477.068 207.985 476.465 207.689 476.075 207.284C475.689 206.879 475.496 206.366 475.496 205.744C475.496 205.229 475.64 204.778 475.928 204.392C476.215 204.006 476.613 203.705 477.121 203.489C477.628 203.269 478.21 203.159 478.865 203.159C479.808 203.159 480.551 203.364 481.092 203.773C481.634 204.178 481.992 204.722 482.166 205.403Z" fill="#9CB9CE"/>
<rect x="96" y="234" width="600" height="2" rx="1" fill="#151722" fill-opacity="0.32"/>
<rect x="117" y="234" width="66" height="2" rx="1" fill="url(#paint1_radial_43_117)"/>
<g filter="url(#filter1_d_43_117)">
<rect x="128" y="234" width="44" height="2" rx="1" fill="url(#paint2_radial_43_117)"/>
</g>
<g filter="url(#filter2_d_43_117)">
<rect x="616" y="142" width="48" height="24" rx="12" fill="url(#paint3_radial_43_117)"/>
</g>
<g filter="url(#filter3_d_43_117)">
<rect x="644" y="146" width="16" height="16" rx="8" fill="white"/>
</g>
<rect x="128" y="254" width="536" height="149" rx="16" fill="#161926"/>
<rect x="140" y="295" width="460" height="36" rx="8" fill="#202435"/>
<path d="M154.009 269.818L156.842 278.111H156.957L159.79 269.818H161.451L157.787 280H156.012L152.348 269.818H154.009ZM162.802 280V272.364H164.289V280H162.802ZM163.553 271.185C163.294 271.185 163.072 271.099 162.887 270.927C162.704 270.751 162.613 270.542 162.613 270.3C162.613 270.055 162.704 269.846 162.887 269.674C163.072 269.498 163.294 269.411 163.553 269.411C163.811 269.411 164.032 269.498 164.214 269.674C164.4 269.846 164.492 270.055 164.492 270.3C164.492 270.542 164.4 270.751 164.214 270.927C164.032 271.099 163.811 271.185 163.553 271.185ZM169.505 280.154C168.789 280.154 168.164 279.99 167.631 279.662C167.097 279.334 166.683 278.875 166.388 278.285C166.093 277.695 165.945 277.005 165.945 276.217C165.945 275.424 166.093 274.732 166.388 274.138C166.683 273.545 167.097 273.085 167.631 272.756C168.164 272.428 168.789 272.264 169.505 272.264C170.221 272.264 170.846 272.428 171.379 272.756C171.913 273.085 172.327 273.545 172.622 274.138C172.917 274.732 173.065 275.424 173.065 276.217C173.065 277.005 172.917 277.695 172.622 278.285C172.327 278.875 171.913 279.334 171.379 279.662C170.846 279.99 170.221 280.154 169.505 280.154ZM169.51 278.906C169.974 278.906 170.358 278.784 170.663 278.538C170.968 278.293 171.194 277.967 171.339 277.559C171.489 277.151 171.563 276.702 171.563 276.212C171.563 275.724 171.489 275.277 171.339 274.869C171.194 274.458 170.968 274.129 170.663 273.88C170.358 273.631 169.974 273.507 169.51 273.507C169.043 273.507 168.655 273.631 168.347 273.88C168.042 274.129 167.815 274.458 167.665 274.869C167.52 275.277 167.447 275.724 167.447 276.212C167.447 276.702 167.52 277.151 167.665 277.559C167.815 277.967 168.042 278.293 168.347 278.538C168.655 278.784 169.043 278.906 169.51 278.906ZM176.21 269.818V280H174.724V269.818H176.21ZM180.433 280.169C179.949 280.169 179.511 280.08 179.12 279.901C178.729 279.718 178.419 279.455 178.19 279.11C177.965 278.765 177.852 278.343 177.852 277.842C177.852 277.411 177.935 277.057 178.101 276.778C178.267 276.5 178.49 276.28 178.772 276.117C179.054 275.955 179.369 275.832 179.717 275.749C180.065 275.666 180.419 275.603 180.781 275.56C181.238 275.507 181.609 275.464 181.894 275.431C182.179 275.395 182.386 275.337 182.516 275.257C182.645 275.178 182.71 275.048 182.71 274.869V274.835C182.71 274.4 182.587 274.064 182.342 273.825C182.1 273.587 181.738 273.467 181.258 273.467C180.757 273.467 180.363 273.578 180.075 273.8C179.79 274.019 179.592 274.263 179.483 274.531L178.086 274.213C178.252 273.749 178.494 273.375 178.812 273.089C179.133 272.801 179.503 272.592 179.92 272.463C180.338 272.33 180.777 272.264 181.238 272.264C181.543 272.264 181.866 272.301 182.207 272.374C182.552 272.443 182.874 272.572 183.172 272.761C183.473 272.95 183.72 273.22 183.913 273.572C184.105 273.92 184.201 274.372 184.201 274.929V280H182.749V278.956H182.69C182.594 279.148 182.449 279.337 182.257 279.523C182.065 279.708 181.818 279.862 181.516 279.985C181.215 280.108 180.853 280.169 180.433 280.169ZM180.756 278.976C181.167 278.976 181.518 278.895 181.81 278.732C182.105 278.57 182.328 278.358 182.481 278.096C182.637 277.831 182.714 277.547 182.714 277.246V276.261C182.661 276.314 182.559 276.364 182.406 276.411C182.257 276.454 182.086 276.492 181.894 276.525C181.702 276.555 181.515 276.583 181.332 276.609C181.15 276.633 180.998 276.652 180.875 276.669C180.587 276.705 180.323 276.767 180.085 276.853C179.849 276.939 179.66 277.063 179.518 277.226C179.379 277.385 179.309 277.597 179.309 277.862C179.309 278.23 179.445 278.509 179.717 278.697C179.988 278.883 180.335 278.976 180.756 278.976ZM189.746 272.364V273.557H185.574V272.364H189.746ZM186.693 270.534H188.18V277.758C188.18 278.046 188.223 278.263 188.309 278.409C188.395 278.552 188.506 278.649 188.642 278.702C188.781 278.752 188.932 278.777 189.094 278.777C189.214 278.777 189.318 278.769 189.407 278.752C189.497 278.736 189.567 278.722 189.616 278.712L189.885 279.94C189.799 279.973 189.676 280.007 189.517 280.04C189.358 280.076 189.159 280.096 188.92 280.099C188.529 280.106 188.165 280.036 187.827 279.891C187.488 279.745 187.215 279.519 187.006 279.214C186.797 278.91 186.693 278.527 186.693 278.066V270.534ZM191.39 280V272.364H192.876V280H191.39ZM192.141 271.185C191.882 271.185 191.66 271.099 191.474 270.927C191.292 270.751 191.201 270.542 191.201 270.3C191.201 270.055 191.292 269.846 191.474 269.674C191.66 269.498 191.882 269.411 192.141 269.411C192.399 269.411 192.62 269.498 192.802 269.674C192.987 269.846 193.08 270.055 193.08 270.3C193.08 270.542 192.987 270.751 192.802 270.927C192.62 271.099 192.399 271.185 192.141 271.185ZM198.093 280.154C197.377 280.154 196.752 279.99 196.219 279.662C195.685 279.334 195.271 278.875 194.976 278.285C194.681 277.695 194.533 277.005 194.533 276.217C194.533 275.424 194.681 274.732 194.976 274.138C195.271 273.545 195.685 273.085 196.219 272.756C196.752 272.428 197.377 272.264 198.093 272.264C198.809 272.264 199.434 272.428 199.967 272.756C200.501 273.085 200.915 273.545 201.21 274.138C201.505 274.732 201.653 275.424 201.653 276.217C201.653 277.005 201.505 277.695 201.21 278.285C200.915 278.875 200.501 279.334 199.967 279.662C199.434 279.99 198.809 280.154 198.093 280.154ZM198.098 278.906C198.562 278.906 198.946 278.784 199.251 278.538C199.556 278.293 199.782 277.967 199.927 277.559C200.077 277.151 200.151 276.702 200.151 276.212C200.151 275.724 200.077 275.277 199.927 274.869C199.782 274.458 199.556 274.129 199.251 273.88C198.946 273.631 198.562 273.507 198.098 273.507C197.631 273.507 197.243 273.631 196.934 273.88C196.63 274.129 196.403 274.458 196.253 274.869C196.108 275.277 196.035 275.724 196.035 276.212C196.035 276.702 196.108 277.151 196.253 277.559C196.403 277.967 196.63 278.293 196.934 278.538C197.243 278.784 197.631 278.906 198.098 278.906ZM204.798 275.466V280H203.312V272.364H204.739V273.607H204.833C205.009 273.202 205.284 272.877 205.658 272.632C206.036 272.387 206.512 272.264 207.085 272.264C207.606 272.264 208.061 272.374 208.452 272.592C208.844 272.808 209.147 273.129 209.362 273.557C209.578 273.984 209.685 274.513 209.685 275.143V280H208.199V275.322C208.199 274.768 208.055 274.336 207.766 274.024C207.478 273.709 207.082 273.552 206.578 273.552C206.233 273.552 205.927 273.626 205.658 273.776C205.393 273.925 205.183 274.143 205.027 274.432C204.875 274.717 204.798 275.062 204.798 275.466ZM217.401 274.228L216.054 274.467C215.998 274.294 215.908 274.13 215.786 273.974C215.666 273.819 215.504 273.691 215.298 273.592C215.093 273.492 214.836 273.442 214.528 273.442C214.107 273.442 213.755 273.537 213.474 273.726C213.192 273.911 213.051 274.152 213.051 274.447C213.051 274.702 213.146 274.907 213.335 275.063C213.523 275.219 213.828 275.347 214.249 275.446L215.462 275.724C216.165 275.887 216.689 276.137 217.033 276.475C217.378 276.813 217.55 277.252 217.55 277.793C217.55 278.25 217.418 278.658 217.153 279.016C216.891 279.37 216.525 279.649 216.054 279.851C215.587 280.053 215.045 280.154 214.428 280.154C213.573 280.154 212.875 279.972 212.335 279.607C211.795 279.239 211.464 278.717 211.341 278.041L212.778 277.822C212.867 278.197 213.051 278.48 213.33 278.673C213.608 278.862 213.971 278.956 214.418 278.956C214.906 278.956 215.295 278.855 215.587 278.653C215.878 278.447 216.024 278.197 216.024 277.902C216.024 277.663 215.935 277.463 215.756 277.3C215.58 277.138 215.31 277.015 214.945 276.933L213.653 276.649C212.94 276.487 212.413 276.228 212.072 275.874C211.734 275.519 211.565 275.07 211.565 274.526C211.565 274.076 211.691 273.681 211.942 273.343C212.194 273.005 212.542 272.741 212.987 272.553C213.431 272.36 213.939 272.264 214.513 272.264C215.338 272.264 215.988 272.443 216.462 272.801C216.936 273.156 217.249 273.631 217.401 274.228Z" fill="#9CB9CE"/>
<path d="M253.979 280H252.348L256.012 269.818H257.787L261.451 280H259.82L256.942 271.668H256.862L253.979 280ZM254.252 276.013H259.542V277.305H254.252V276.013ZM265.896 280.154C265.156 280.154 264.52 279.987 263.987 279.652C263.456 279.314 263.049 278.848 262.763 278.255C262.478 277.662 262.336 276.982 262.336 276.217C262.336 275.441 262.482 274.757 262.773 274.163C263.065 273.567 263.476 273.101 264.006 272.766C264.537 272.432 265.161 272.264 265.881 272.264C266.461 272.264 266.978 272.372 267.432 272.587C267.886 272.799 268.252 273.098 268.531 273.482C268.812 273.867 268.98 274.316 269.033 274.83H267.586C267.506 274.472 267.324 274.163 267.039 273.905C266.757 273.646 266.379 273.517 265.906 273.517C265.491 273.517 265.128 273.626 264.817 273.845C264.509 274.061 264.268 274.369 264.096 274.77C263.924 275.168 263.837 275.638 263.837 276.182C263.837 276.739 263.922 277.219 264.091 277.624C264.26 278.028 264.499 278.341 264.807 278.563C265.118 278.785 265.485 278.896 265.906 278.896C266.187 278.896 266.442 278.845 266.671 278.742C266.903 278.636 267.097 278.485 267.253 278.29C267.412 278.094 267.523 277.859 267.586 277.584H269.033C268.98 278.078 268.819 278.518 268.55 278.906C268.282 279.294 267.922 279.599 267.472 279.821C267.024 280.043 266.499 280.154 265.896 280.154ZM274.187 272.364V273.557H270.016V272.364H274.187ZM271.134 270.534H272.621V277.758C272.621 278.046 272.664 278.263 272.75 278.409C272.836 278.552 272.947 278.649 273.083 278.702C273.222 278.752 273.373 278.777 273.536 278.777C273.655 278.777 273.759 278.769 273.849 278.752C273.938 278.736 274.008 278.722 274.058 278.712L274.326 279.94C274.24 279.973 274.117 280.007 273.958 280.04C273.799 280.076 273.6 280.096 273.362 280.099C272.971 280.106 272.606 280.036 272.268 279.891C271.93 279.745 271.656 279.519 271.448 279.214C271.239 278.91 271.134 278.527 271.134 278.066V270.534ZM275.831 280V272.364H277.318V280H275.831ZM276.582 271.185C276.324 271.185 276.101 271.099 275.916 270.927C275.734 270.751 275.642 270.542 275.642 270.3C275.642 270.055 275.734 269.846 275.916 269.674C276.101 269.498 276.324 269.411 276.582 269.411C276.841 269.411 277.061 269.498 277.243 269.674C277.429 269.846 277.522 270.055 277.522 270.3C277.522 270.542 277.429 270.751 277.243 270.927C277.061 271.099 276.841 271.185 276.582 271.185ZM282.534 280.154C281.818 280.154 281.194 279.99 280.66 279.662C280.126 279.334 279.712 278.875 279.417 278.285C279.122 277.695 278.975 277.005 278.975 276.217C278.975 275.424 279.122 274.732 279.417 274.138C279.712 273.545 280.126 273.085 280.66 272.756C281.194 272.428 281.818 272.264 282.534 272.264C283.25 272.264 283.875 272.428 284.409 272.756C284.942 273.085 285.356 273.545 285.651 274.138C285.946 274.732 286.094 275.424 286.094 276.217C286.094 277.005 285.946 277.695 285.651 278.285C285.356 278.875 284.942 279.334 284.409 279.662C283.875 279.99 283.25 280.154 282.534 280.154ZM282.539 278.906C283.003 278.906 283.388 278.784 283.693 278.538C283.998 278.293 284.223 277.967 284.369 277.559C284.518 277.151 284.593 276.702 284.593 276.212C284.593 275.724 284.518 275.277 284.369 274.869C284.223 274.458 283.998 274.129 283.693 273.88C283.388 273.631 283.003 273.507 282.539 273.507C282.072 273.507 281.684 273.631 281.376 273.88C281.071 274.129 280.844 274.458 280.695 274.869C280.549 275.277 280.476 275.724 280.476 276.212C280.476 276.702 280.549 277.151 280.695 277.559C280.844 277.967 281.071 278.293 281.376 278.538C281.684 278.784 282.072 278.906 282.539 278.906ZM289.24 275.466V280H287.753V272.364H289.18V273.607H289.275C289.45 273.202 289.725 272.877 290.1 272.632C290.478 272.387 290.953 272.264 291.527 272.264C292.047 272.264 292.503 272.374 292.894 272.592C293.285 272.808 293.588 273.129 293.804 273.557C294.019 273.984 294.127 274.513 294.127 275.143V280H292.64V275.322C292.64 274.768 292.496 274.336 292.208 274.024C291.919 273.709 291.523 273.552 291.02 273.552C290.675 273.552 290.368 273.626 290.1 273.776C289.835 273.925 289.624 274.143 289.468 274.432C289.316 274.717 289.24 275.062 289.24 275.466Z" fill="#9CB9CE"/>
<path d="M356.415 280H353.119V269.818H356.519C357.517 269.818 358.374 270.022 359.089 270.43C359.805 270.834 360.354 271.416 360.735 272.175C361.12 272.93 361.312 273.837 361.312 274.894C361.312 275.955 361.118 276.866 360.73 277.629C360.346 278.391 359.789 278.978 359.06 279.388C358.33 279.796 357.449 280 356.415 280ZM354.655 278.658H356.33C357.106 278.658 357.75 278.512 358.264 278.22C358.778 277.925 359.162 277.499 359.418 276.942C359.673 276.382 359.8 275.7 359.8 274.894C359.8 274.095 359.673 273.418 359.418 272.861C359.166 272.304 358.79 271.881 358.289 271.593C357.789 271.305 357.167 271.161 356.425 271.161H354.655V278.658ZM367.94 276.833V272.364H369.432V280H367.97V278.678H367.89C367.715 279.085 367.433 279.425 367.045 279.697C366.661 279.965 366.182 280.099 365.608 280.099C365.118 280.099 364.684 279.992 364.306 279.776C363.931 279.558 363.636 279.234 363.421 278.807C363.209 278.379 363.103 277.851 363.103 277.221V272.364H364.589V277.042C364.589 277.562 364.733 277.977 365.022 278.285C365.31 278.593 365.685 278.747 366.145 278.747C366.424 278.747 366.701 278.678 366.976 278.538C367.254 278.399 367.484 278.189 367.667 277.907C367.852 277.625 367.943 277.267 367.94 276.833ZM371.429 280V272.364H372.866V273.577H372.945C373.085 273.166 373.33 272.843 373.681 272.607C374.036 272.369 374.437 272.249 374.884 272.249C374.977 272.249 375.086 272.253 375.212 272.259C375.342 272.266 375.443 272.274 375.516 272.284V273.706C375.456 273.689 375.35 273.671 375.197 273.651C375.045 273.628 374.893 273.616 374.74 273.616C374.389 273.616 374.076 273.691 373.8 273.84C373.529 273.986 373.313 274.19 373.154 274.452C372.995 274.71 372.915 275.005 372.915 275.337V280H371.429ZM378.956 280.169C378.472 280.169 378.035 280.08 377.643 279.901C377.252 279.718 376.942 279.455 376.714 279.11C376.488 278.765 376.376 278.343 376.376 277.842C376.376 277.411 376.459 277.057 376.624 276.778C376.79 276.5 377.014 276.28 377.295 276.117C377.577 275.955 377.892 275.832 378.24 275.749C378.588 275.666 378.943 275.603 379.304 275.56C379.761 275.507 380.133 275.464 380.418 275.431C380.703 275.395 380.91 275.337 381.039 275.257C381.168 275.178 381.233 275.048 381.233 274.869V274.835C381.233 274.4 381.11 274.064 380.865 273.825C380.623 273.587 380.262 273.467 379.781 273.467C379.281 273.467 378.886 273.578 378.598 273.8C378.313 274.019 378.116 274.263 378.006 274.531L376.609 274.213C376.775 273.749 377.017 273.375 377.335 273.089C377.657 272.801 378.026 272.592 378.444 272.463C378.862 272.33 379.301 272.264 379.761 272.264C380.066 272.264 380.389 272.301 380.731 272.374C381.076 272.443 381.397 272.572 381.695 272.761C381.997 272.95 382.244 273.22 382.436 273.572C382.628 273.92 382.724 274.372 382.724 274.929V280H381.273V278.956H381.213C381.117 279.148 380.973 279.337 380.781 279.523C380.588 279.708 380.341 279.862 380.04 279.985C379.738 280.108 379.377 280.169 378.956 280.169ZM379.279 278.976C379.69 278.976 380.041 278.895 380.333 278.732C380.628 278.57 380.852 278.358 381.004 278.096C381.16 277.831 381.238 277.547 381.238 277.246V276.261C381.185 276.314 381.082 276.364 380.93 276.411C380.781 276.454 380.61 276.492 380.418 276.525C380.225 276.555 380.038 276.583 379.856 276.609C379.674 276.633 379.521 276.652 379.398 276.669C379.11 276.705 378.847 276.767 378.608 276.853C378.373 276.939 378.184 277.063 378.041 277.226C377.902 277.385 377.832 277.597 377.832 277.862C377.832 278.23 377.968 278.509 378.24 278.697C378.512 278.883 378.858 278.976 379.279 278.976ZM388.269 272.364V273.557H384.098V272.364H388.269ZM385.216 270.534H386.703V277.758C386.703 278.046 386.746 278.263 386.832 278.409C386.918 278.552 387.029 278.649 387.165 278.702C387.305 278.752 387.455 278.777 387.618 278.777C387.737 278.777 387.841 278.769 387.931 278.752C388.02 278.736 388.09 278.722 388.14 278.712L388.408 279.94C388.322 279.973 388.199 280.007 388.04 280.04C387.881 280.076 387.682 280.096 387.444 280.099C387.053 280.106 386.688 280.036 386.35 279.891C386.012 279.745 385.738 279.519 385.53 279.214C385.321 278.91 385.216 278.527 385.216 278.066V270.534ZM389.913 280V272.364H391.4V280H389.913ZM390.664 271.185C390.406 271.185 390.183 271.099 389.998 270.927C389.816 270.751 389.724 270.542 389.724 270.3C389.724 270.055 389.816 269.846 389.998 269.674C390.183 269.498 390.406 269.411 390.664 269.411C390.923 269.411 391.143 269.498 391.325 269.674C391.511 269.846 391.604 270.055 391.604 270.3C391.604 270.542 391.511 270.751 391.325 270.927C391.143 271.099 390.923 271.185 390.664 271.185ZM396.616 280.154C395.9 280.154 395.276 279.99 394.742 279.662C394.208 279.334 393.794 278.875 393.499 278.285C393.204 277.695 393.057 277.005 393.057 276.217C393.057 275.424 393.204 274.732 393.499 274.138C393.794 273.545 394.208 273.085 394.742 272.756C395.276 272.428 395.9 272.264 396.616 272.264C397.332 272.264 397.957 272.428 398.491 272.756C399.024 273.085 399.439 273.545 399.733 274.138C400.028 274.732 400.176 275.424 400.176 276.217C400.176 277.005 400.028 277.695 399.733 278.285C399.439 278.875 399.024 279.334 398.491 279.662C397.957 279.99 397.332 280.154 396.616 280.154ZM396.621 278.906C397.085 278.906 397.47 278.784 397.775 278.538C398.08 278.293 398.305 277.967 398.451 277.559C398.6 277.151 398.675 276.702 398.675 276.212C398.675 275.724 398.6 275.277 398.451 274.869C398.305 274.458 398.08 274.129 397.775 273.88C397.47 273.631 397.085 273.507 396.621 273.507C396.154 273.507 395.766 273.631 395.458 273.88C395.153 274.129 394.926 274.458 394.777 274.869C394.631 275.277 394.558 275.724 394.558 276.212C394.558 276.702 394.631 277.151 394.777 277.559C394.926 277.967 395.153 278.293 395.458 278.538C395.766 278.784 396.154 278.906 396.621 278.906ZM403.322 275.466V280H401.835V272.364H403.262V273.607H403.357C403.532 273.202 403.807 272.877 404.182 272.632C404.56 272.387 405.035 272.264 405.609 272.264C406.129 272.264 406.585 272.374 406.976 272.592C407.367 272.808 407.67 273.129 407.886 273.557C408.101 273.984 408.209 274.513 408.209 275.143V280H406.722V275.322C406.722 274.768 406.578 274.336 406.29 274.024C406.001 273.709 405.605 273.552 405.102 273.552C404.757 273.552 404.45 273.626 404.182 273.776C403.917 273.925 403.706 274.143 403.55 274.432C403.398 274.717 403.322 275.062 403.322 275.466Z" fill="#9CB9CE"/>
<path d="M152 307C152 304.791 153.791 303 156 303H184C186.209 303 188 304.791 188 307V319C188 321.209 186.209 323 184 323H156C153.791 323 152 321.209 152 319V307Z" fill="#353B55"/>
<path d="M170.515 319.139C169.852 319.139 169.259 319.015 168.735 318.766C168.211 318.514 167.795 318.17 167.487 317.732C167.182 317.295 167.02 316.794 167 316.231H168.79C168.823 316.648 169.004 316.99 169.332 317.255C169.66 317.517 170.054 317.648 170.515 317.648C170.876 317.648 171.198 317.565 171.479 317.399C171.761 317.233 171.983 317.003 172.146 316.708C172.308 316.413 172.388 316.077 172.384 315.699C172.388 315.314 172.306 314.973 172.141 314.675C171.975 314.376 171.748 314.143 171.46 313.974C171.171 313.801 170.84 313.715 170.465 313.715C170.16 313.712 169.86 313.768 169.565 313.884C169.27 314 169.037 314.153 168.864 314.342L167.199 314.068L167.731 308.818H173.637V310.359H169.257L168.964 313.059H169.023C169.212 312.837 169.479 312.653 169.824 312.507C170.169 312.358 170.546 312.283 170.957 312.283C171.574 312.283 172.124 312.429 172.608 312.721C173.092 313.009 173.473 313.407 173.751 313.914C174.03 314.421 174.169 315.001 174.169 315.654C174.169 316.327 174.013 316.927 173.702 317.454C173.393 317.978 172.964 318.39 172.414 318.692C171.867 318.99 171.234 319.139 170.515 319.139Z" fill="white"/>
<path d="M352 307C352 304.791 353.791 303 356 303H384C386.209 303 388 304.791 388 307V319C388 321.209 386.209 323 384 323H356C353.791 323 352 321.209 352 319V307Z" fill="#353B55"/>
<path d="M392 307C392 304.791 393.791 303 396 303H424C426.209 303 428 304.791 428 307V319C428 321.209 426.209 323 424 323H396C393.791 323 392 321.209 392 319V307Z" fill="#353B55"/>
<path d="M632 307C632 304.791 633.791 303 636 303H648C650.209 303 652 304.791 652 307V319C652 321.209 650.209 323 648 323H636C633.791 323 632 321.209 632 319V307Z" fill="#B11212"/>
<path d="M365.83 319.139C365.115 319.139 364.478 319.017 363.921 318.771C363.368 318.526 362.93 318.185 362.609 317.747C362.287 317.31 362.117 316.804 362.097 316.231H363.966C363.983 316.506 364.074 316.746 364.24 316.952C364.405 317.154 364.626 317.311 364.901 317.424C365.176 317.537 365.484 317.593 365.825 317.593C366.19 317.593 366.513 317.53 366.795 317.404C367.077 317.275 367.297 317.096 367.456 316.867C367.615 316.638 367.693 316.375 367.69 316.077C367.693 315.768 367.614 315.497 367.451 315.261C367.289 315.026 367.053 314.842 366.745 314.71C366.44 314.577 366.072 314.511 365.642 314.511H364.742V313.089H365.642C365.996 313.089 366.306 313.027 366.571 312.905C366.84 312.782 367.05 312.61 367.203 312.388C367.355 312.162 367.43 311.902 367.426 311.607C367.43 311.319 367.365 311.069 367.232 310.857C367.103 310.641 366.919 310.474 366.681 310.354C366.445 310.235 366.169 310.175 365.85 310.175C365.539 310.175 365.25 310.232 364.985 310.344C364.72 310.457 364.506 310.618 364.344 310.827C364.182 311.032 364.095 311.277 364.085 311.562H362.311C362.324 310.992 362.488 310.492 362.803 310.061C363.121 309.627 363.545 309.289 364.075 309.047C364.606 308.802 365.201 308.679 365.86 308.679C366.54 308.679 367.13 308.807 367.63 309.062C368.134 309.314 368.523 309.653 368.798 310.081C369.074 310.509 369.211 310.981 369.211 311.498C369.214 312.071 369.045 312.552 368.704 312.94C368.366 313.327 367.922 313.581 367.372 313.7V313.78C368.088 313.879 368.636 314.144 369.017 314.575C369.402 315.003 369.592 315.535 369.589 316.171C369.589 316.741 369.427 317.252 369.102 317.702C368.78 318.15 368.336 318.501 367.769 318.756C367.206 319.012 366.56 319.139 365.83 319.139ZM375.059 319.194C374.24 319.194 373.538 318.987 372.951 318.572C372.368 318.155 371.919 317.553 371.604 316.768C371.292 315.979 371.136 315.029 371.136 313.919C371.14 312.809 371.297 311.864 371.609 311.085C371.924 310.303 372.373 309.706 372.956 309.295C373.543 308.884 374.244 308.679 375.059 308.679C375.874 308.679 376.575 308.884 377.162 309.295C377.749 309.706 378.198 310.303 378.509 311.085C378.824 311.867 378.982 312.812 378.982 313.919C378.982 315.033 378.824 315.984 378.509 316.773C378.198 317.558 377.749 318.158 377.162 318.572C376.579 318.987 375.878 319.194 375.059 319.194ZM375.059 317.638C375.695 317.638 376.197 317.325 376.565 316.698C376.937 316.068 377.122 315.142 377.122 313.919C377.122 313.11 377.038 312.431 376.869 311.881C376.7 311.33 376.461 310.916 376.153 310.638C375.844 310.356 375.48 310.215 375.059 310.215C374.426 310.215 373.925 310.53 373.558 311.16C373.19 311.786 373.004 312.706 373.001 313.919C372.997 314.731 373.079 315.414 373.244 315.967C373.413 316.521 373.652 316.938 373.96 317.22C374.268 317.499 374.635 317.638 375.059 317.638Z" fill="white"/>
<path d="M398.052 319V311.364H399.772V312.661H399.861C400.02 312.224 400.284 311.882 400.652 311.637C401.02 311.388 401.459 311.264 401.969 311.264C402.486 311.264 402.922 311.39 403.277 311.642C403.635 311.891 403.887 312.23 404.032 312.661H404.112C404.281 312.237 404.566 311.899 404.967 311.647C405.372 311.392 405.85 311.264 406.404 311.264C407.107 311.264 407.68 311.486 408.124 311.93C408.568 312.375 408.79 313.022 408.79 313.874V319H406.986V314.153C406.986 313.679 406.86 313.332 406.608 313.114C406.356 312.892 406.048 312.781 405.683 312.781C405.249 312.781 404.909 312.916 404.664 313.188C404.422 313.457 404.301 313.806 404.301 314.237V319H402.536V314.078C402.536 313.684 402.417 313.369 402.178 313.134C401.943 312.898 401.635 312.781 401.253 312.781C400.995 312.781 400.76 312.847 400.547 312.979C400.335 313.109 400.166 313.293 400.04 313.531C399.914 313.767 399.851 314.042 399.851 314.357V319H398.052ZM410.616 319V311.364H412.416V319H410.616ZM411.521 310.28C411.236 310.28 410.991 310.185 410.785 309.996C410.58 309.804 410.477 309.574 410.477 309.305C410.477 309.034 410.58 308.803 410.785 308.614C410.991 308.422 411.236 308.326 411.521 308.326C411.809 308.326 412.055 308.422 412.257 308.614C412.462 308.803 412.565 309.034 412.565 309.305C412.565 309.574 412.462 309.804 412.257 309.996C412.055 310.185 411.809 310.28 411.521 310.28ZM416.066 314.526V319H414.267V311.364H415.987V312.661H416.076C416.252 312.234 416.532 311.894 416.916 311.642C417.304 311.39 417.783 311.264 418.353 311.264C418.88 311.264 419.339 311.377 419.73 311.602C420.125 311.828 420.43 312.154 420.645 312.582C420.864 313.009 420.972 313.528 420.968 314.138V319H419.169V314.416C419.169 313.906 419.036 313.506 418.771 313.218C418.509 312.93 418.146 312.786 417.682 312.786C417.367 312.786 417.087 312.855 416.842 312.994C416.6 313.13 416.409 313.327 416.27 313.586C416.134 313.844 416.066 314.158 416.066 314.526Z" fill="white"/>
<path d="M253.004 308.818H255.261L258.284 316.196H258.403L261.426 308.818H263.683V319H261.913V312.005H261.819L259.005 318.97H257.683L254.869 311.99H254.774V319H253.004V308.818ZM270.479 315.788V311.364H272.279V319H270.534V317.643H270.455C270.282 318.07 269.999 318.42 269.604 318.692C269.213 318.964 268.731 319.099 268.158 319.099C267.657 319.099 267.215 318.988 266.83 318.766C266.449 318.541 266.151 318.214 265.935 317.787C265.72 317.356 265.612 316.836 265.612 316.226V311.364H267.412V315.947C267.412 316.431 267.545 316.816 267.81 317.101C268.075 317.386 268.423 317.528 268.854 317.528C269.119 317.528 269.376 317.464 269.624 317.335C269.873 317.205 270.077 317.013 270.236 316.758C270.398 316.499 270.479 316.176 270.479 315.788ZM277.943 311.364V312.756H273.553V311.364H277.943ZM274.637 309.534H276.437V316.703C276.437 316.945 276.473 317.131 276.546 317.26C276.622 317.386 276.722 317.472 276.844 317.518C276.967 317.565 277.103 317.588 277.252 317.588C277.365 317.588 277.467 317.58 277.56 317.563C277.656 317.547 277.729 317.532 277.779 317.518L278.082 318.925C277.986 318.959 277.849 318.995 277.67 319.035C277.494 319.075 277.278 319.098 277.023 319.104C276.573 319.118 276.166 319.05 275.805 318.901C275.444 318.748 275.157 318.513 274.945 318.195C274.736 317.876 274.634 317.479 274.637 317.001V309.534ZM282.747 319.149C281.981 319.149 281.32 318.99 280.763 318.672C280.21 318.35 279.784 317.896 279.485 317.31C279.187 316.72 279.038 316.025 279.038 315.227C279.038 314.441 279.187 313.752 279.485 313.158C279.787 312.562 280.208 312.098 280.748 311.766C281.288 311.432 281.923 311.264 282.652 311.264C283.123 311.264 283.567 311.34 283.985 311.493C284.406 311.642 284.777 311.874 285.098 312.189C285.423 312.504 285.678 312.905 285.864 313.392C286.05 313.876 286.142 314.453 286.142 315.122V315.674H279.883V314.461H284.417C284.414 314.116 284.339 313.81 284.194 313.541C284.048 313.269 283.844 313.056 283.582 312.9C283.324 312.744 283.022 312.666 282.677 312.666C282.309 312.666 281.986 312.756 281.708 312.935C281.429 313.11 281.212 313.342 281.056 313.631C280.904 313.916 280.826 314.229 280.823 314.57V315.629C280.823 316.073 280.904 316.455 281.066 316.773C281.229 317.088 281.456 317.33 281.748 317.499C282.039 317.664 282.381 317.747 282.772 317.747C283.033 317.747 283.27 317.711 283.483 317.638C283.695 317.562 283.879 317.451 284.034 317.305C284.19 317.159 284.308 316.978 284.387 316.763L286.068 316.952C285.962 317.396 285.76 317.784 285.461 318.115C285.166 318.443 284.788 318.698 284.328 318.881C283.867 319.06 283.34 319.149 282.747 319.149Z" fill="white"/>
<path d="M620.335 307.629C621.173 306.79 622.533 306.79 623.371 307.629C624.21 308.467 624.21 309.826 623.371 310.665L622.836 311.2L619.8 308.164L620.335 307.629ZM619.163 308.8L613.165 314.799C612.921 315.043 612.749 315.35 612.67 315.685L612.012 318.446C611.976 318.598 612.021 318.758 612.132 318.868C612.242 318.979 612.402 319.024 612.554 318.988L615.315 318.331C615.651 318.251 615.957 318.079 616.201 317.835L622.2 311.836L619.163 308.8Z" fill="#D4E7F5"/>
<path d="M640.8 309.049H643.2C643.2 308.402 642.663 307.878 642 307.878C641.337 307.878 640.8 308.402 640.8 309.049ZM639.9 309.049C639.9 307.917 640.84 307 642 307C643.16 307 644.1 307.917 644.1 309.049H647.55C647.799 309.049 648 309.245 648 309.488C648 309.73 647.799 309.927 647.55 309.927H646.759L646.055 317.016C645.944 318.142 644.975 319 643.816 319H640.184C639.026 319 638.056 318.142 637.945 317.016L637.241 309.927H636.45C636.201 309.927 636 309.73 636 309.488C636 309.245 636.201 309.049 636.45 309.049H639.9ZM641.1 311.829C641.1 311.587 640.899 311.39 640.65 311.39C640.401 311.39 640.2 311.587 640.2 311.829V316.22C640.2 316.462 640.401 316.659 640.65 316.659C640.899 316.659 641.1 316.462 641.1 316.22V311.829ZM643.35 311.39C643.101 311.39 642.9 311.587 642.9 311.829V316.22C642.9 316.462 643.101 316.659 643.35 316.659C643.599 316.659 643.8 316.462 643.8 316.22V311.829C643.8 311.587 643.599 311.39 643.35 311.39Z" fill="#D4E7F5"/>
<path d="M396 355C402.627 355 408 360.373 408 367C408 373.627 402.627 379 396 379C389.373 379 384 373.627 384 367C384 360.373 389.373 355 396 355ZM396 361C395.544 361 395.168 361.339 395.108 361.778L395.1 361.9V366.1H390.9C390.403 366.1 390 366.503 390 367C390 367.456 390.339 367.832 390.778 367.892L390.9 367.9H395.1V372.1C395.1 372.597 395.503 373 396 373C396.456 373 396.832 372.661 396.892 372.222L396.9 372.1V367.9H401.1C401.597 367.9 402 367.497 402 367C402 366.544 401.661 366.168 401.222 366.108L401.1 366.1H396.9V361.9C396.9 361.403 396.497 361 396 361Z" fill="#04FB9F"/>
<defs>
<filter id="filter0_d_43_117" x="0" y="0" width="856" height="563" filterUnits="userSpaceOnUse" color-interpolation-filters="sRGB">
<feFlood flood-opacity="0" result="BackgroundImageFix"/>
<feColorMatrix in="SourceAlpha" type="matrix" values="0 0 0 0 0 0 0 0 0 0 0 0 0 0 0 0 0 0 127 0" result="hardAlpha"/>
<feOffset dy="32"/>
<feGaussianBlur stdDeviation="64"/>
<feComposite in2="hardAlpha" operator="out"/>
<feColorMatrix type="matrix" values="0 0 0 0 0 0 0 0 0 1 0 0 0 0 0.627531 0 0 0 0.24 0"/>
<feBlend mode="normal" in2="BackgroundImageFix" result="effect1_dropShadow_43_117"/>
<feBlend mode="normal" in="SourceGraphic" in2="effect1_dropShadow_43_117" result="shape"/>
</filter>
<filter id="filter1_d_43_117" x="64" y="179" width="172" height="130" filterUnits="userSpaceOnUse" color-interpolation-filters="sRGB">
<feFlood flood-opacity="0" result="BackgroundImageFix"/>
<feColorMatrix in="SourceAlpha" type="matrix" values="0 0 0 0 0 0 0 0 0 0 0 0 0 0 0 0 0 0 127 0" result="hardAlpha"/>
<feOffset dy="9"/>
<feGaussianBlur stdDeviation="32"/>
<feComposite in2="hardAlpha" operator="out"/>
<feColorMatrix type="matrix" values="0 0 0 0 0 0 0 0 0 1 0 0 0 0 0.627531 0 0 0 0.48 0"/>
<feBlend mode="normal" in2="BackgroundImageFix" result="effect1_dropShadow_43_117"/>
<feBlend mode="normal" in="SourceGraphic" in2="effect1_dropShadow_43_117" result="shape"/>
</filter>
<filter id="filter2_d_43_117" x="552" y="87" width="176" height="152" filterUnits="userSpaceOnUse" color-interpolation-filters="sRGB">
<feFlood flood-opacity="0" result="BackgroundImageFix"/>
<feColorMatrix in="SourceAlpha" type="matrix" values="0 0 0 0 0 0 0 0 0 0 0 0 0 0 0 0 0 0 127 0" result="hardAlpha"/>
<feOffset dy="9"/>
<feGaussianBlur stdDeviation="32"/>
<feComposite in2="hardAlpha" operator="out"/>
<feColorMatrix type="matrix" values="0 0 0 0 0 0 0 0 0 1 0 0 0 0 0.627531 0 0 0 0.48 0"/>
<feBlend mode="normal" in2="BackgroundImageFix" result="effect1_dropShadow_43_117"/>
<feBlend mode="normal" in="SourceGraphic" in2="effect1_dropShadow_43_117" result="shape"/>
</filter>
<filter id="filter3_d_43_117" x="626" y="128" width="52" height="52" filterUnits="userSpaceOnUse" color-interpolation-filters="sRGB">
<feFlood flood-opacity="0" result="BackgroundImageFix"/>
<feColorMatrix in="SourceAlpha" type="matrix" values="0 0 0 0 0 0 0 0 0 0 0 0 0 0 0 0 0 0 127 0" result="hardAlpha"/>
<feMorphology radius="6" operator="dilate" in="SourceAlpha" result="effect1_dropShadow_43_117"/>
<feOffset/>
<feGaussianBlur stdDeviation="6"/>
<feComposite in2="hardAlpha" operator="out"/>
<feColorMatrix type="matrix" values="0 0 0 0 0.0156863 0 0 0 0 0.984314 0 0 0 0 0.623529 0 0 0 0.51 0"/>
<feBlend mode="normal" in2="BackgroundImageFix" result="effect1_dropShadow_43_117"/>
<feBlend mode="normal" in="SourceGraphic" in2="effect1_dropShadow_43_117" result="shape"/>
</filter>
<radialGradient id="paint0_radial_43_117" cx="0" cy="0" r="1" gradientUnits="userSpaceOnUse" gradientTransform="translate(396.75 249.5) rotate(7.33485) scale(333.983 271.348)">
<stop stop-color="#08DF8F"/>
<stop offset="1" stop-color="#037C75"/>
</radialGradient>
<radialGradient id="paint1_radial_43_117" cx="0" cy="0" r="1" gradientUnits="userSpaceOnUse" gradientTransform="translate(150 234) rotate(90) scale(2 66)">
<stop stop-color="#1B1E2D"/>
<stop offset="1" stop-color="#12474F" stop-opacity="0.31"/>
</radialGradient>
<radialGradient id="paint2_radial_43_117" cx="0" cy="0" r="1" gradientUnits="userSpaceOnUse" gradientTransform="translate(147.708 235) rotate(0.655155) scale(24.2933 1.78221)">
<stop stop-color="#08DF8F"/>
<stop offset="1" stop-color="#037C75"/>
</radialGradient>
<radialGradient id="paint3_radial_43_117" cx="0" cy="0" r="1" gradientUnits="userSpaceOnUse" gradientTransform="translate(637.5 154) rotate(7.16936) scale(26.7088 21.2207)">
<stop stop-color="#08DF8F"/>
<stop offset="1" stop-color="#037C75"/>
</radialGradient>
</defs>
</svg>
