<svg width="24" height="24" viewBox="0 0 24 24" fill="none" xmlns="http://www.w3.org/2000/svg">
<path d="M1.91925 14.1747L0.00757142 1.1744C-0.0730976 0.625811 0.507656 0.238309 0.949073 0.54619L5.25704 3.55092C6.31037 4.2856 7.72578 4.05569 8.51662 3.02145L10.0942 0.958305C11.0712 -0.319436 12.9288 -0.319434 13.9058 0.958306L15.4834 3.02146C16.2742 4.05569 17.6896 4.2856 18.743 3.55092L23.0509 0.54619C23.4923 0.23831 24.0731 0.62581 23.9924 1.1744L22.0808 14.1746C21.8976 15.4203 20.5264 16.3398 19.3218 16.3398H4.67822C3.47362 16.3398 2.10242 15.4203 1.91925 14.1747Z" fill="#F8BE2A"/>
<path d="M2.23763 21.4466C2.23763 20.0364 3.33032 18.8932 4.67822 18.8932H19.3218C20.6697 18.8932 21.7624 20.0364 21.7624 21.4466C21.7624 22.8568 20.6697 24 19.3218 24H4.67822C3.33032 24 2.23763 22.8568 2.23763 21.4466Z" fill="#F8BE2A"/>
</svg>
