<svg width="31" height="25" viewBox="0 0 31 25" fill="none" xmlns="http://www.w3.org/2000/svg">
<path d="M26.2435 2.49087C24.2334 1.55391 22.1123 0.885185 19.9331 0.501367C19.9134 0.49799 19.8931 0.500906 19.8751 0.509716C19.857 0.518526 19.8421 0.532795 19.8324 0.550563C19.5592 1.04253 19.2569 1.68602 19.0458 2.18979C16.6968 1.82772 14.3074 1.82772 11.9585 2.18979C11.7229 1.62859 11.4564 1.08132 11.1602 0.550563C11.1503 0.53299 11.1353 0.518885 11.1173 0.510103C11.0994 0.501322 11.0792 0.498276 11.0595 0.501367C8.8798 0.883131 6.75826 1.5522 4.74909 2.49087C4.7319 2.49753 4.71752 2.51005 4.7084 2.52629C0.69007 8.62468 -0.412356 14.5735 0.128201 20.4476C0.130138 20.4751 0.147576 20.5027 0.168888 20.5204C2.50883 22.2808 5.12611 23.625 7.90912 24.4954C7.92877 24.5017 7.94988 24.5015 7.96939 24.4948C7.98891 24.4881 8.0058 24.4752 8.01762 24.458C8.61436 23.6315 9.14523 22.7598 9.60248 21.8428C9.61201 21.8239 9.61527 21.8024 9.61178 21.7814C9.60829 21.7605 9.59823 21.7413 9.5831 21.7267C9.57309 21.7171 9.56121 21.7097 9.54823 21.705C8.71348 21.3792 7.90504 20.9877 7.13025 20.5341C7.10861 20.5217 7.09252 20.5013 7.0853 20.4771C7.07809 20.4529 7.08031 20.4268 7.0915 20.4043C7.0981 20.3896 7.10806 20.3768 7.12056 20.3669C7.28331 20.2429 7.44606 20.113 7.60106 19.9831C7.61475 19.972 7.63118 19.9648 7.64859 19.9623C7.66599 19.9599 7.68372 19.9623 7.69987 19.9694C12.7741 22.3229 18.2669 22.3229 23.2791 19.9694C23.2959 19.962 23.3143 19.9594 23.3324 19.9618C23.3505 19.9643 23.3675 19.9716 23.3818 19.9831C23.5368 20.113 23.6996 20.2429 23.8623 20.3669C23.8755 20.3767 23.8861 20.3896 23.8932 20.4046C23.9002 20.4195 23.9035 20.4361 23.9027 20.4526C23.902 20.4692 23.8972 20.4853 23.8888 20.4995C23.8804 20.5138 23.8686 20.5257 23.8546 20.5341C23.0816 20.9919 22.2721 21.3829 21.4347 21.7031C21.4213 21.708 21.4092 21.7158 21.3991 21.726C21.3891 21.7362 21.3814 21.7485 21.3765 21.7621C21.3721 21.7752 21.3703 21.7892 21.3713 21.803C21.3723 21.8169 21.376 21.8304 21.3824 21.8428C21.8473 22.7578 22.3802 23.6315 22.9653 24.458C22.9771 24.4752 22.994 24.4881 23.0135 24.4948C23.033 24.5015 23.0541 24.5017 23.0738 24.4954C25.8614 23.6277 28.483 22.2834 30.8256 20.5204C30.8374 20.5121 30.8471 20.5013 30.8542 20.4887C30.8612 20.4761 30.8654 20.462 30.8663 20.4476C31.5134 13.6565 29.7833 7.75685 26.2822 2.52826C26.2787 2.51962 26.2734 2.51183 26.2668 2.50539C26.2601 2.49895 26.2522 2.49401 26.2435 2.49087ZM10.36 16.87C8.83136 16.87 7.57394 15.4453 7.57394 13.6978C7.57394 11.9484 8.80811 10.5237 10.36 10.5237C11.9236 10.5237 13.1694 11.9602 13.1461 13.6978C13.1461 15.4453 11.912 16.87 10.36 16.87ZM20.6597 16.87C19.1329 16.87 17.8736 15.4453 17.8736 13.6978C17.8736 11.9484 19.1078 10.5237 20.6597 10.5237C22.2232 10.5237 23.471 11.9602 23.4458 13.6978C23.4458 15.4453 22.2232 16.87 20.6597 16.87Z" fill="white"/>
</svg>
