<svg width="1920" height="2162" viewBox="0 0 1920 2162" fill="none" xmlns="http://www.w3.org/2000/svg">
<g filter="url(#filter0_f_29_39)">
<path d="M-58 528.551C-25.1853 563.89 16.1209 597.232 64.4834 607.133C139.581 622.508 171.141 537.787 189.381 478.723C210.655 409.837 204.348 334.648 227.356 266.902C251.971 194.423 300.763 132.196 357.083 81.0912C418.529 25.334 496.602 -13.0701 581.087 4.15496C637.634 15.684 733.017 24.4889 738.142 96.237C744.97 191.828 710.302 270.837 668.998 355.581C607.339 482.089 528.931 597.541 458.055 718.641C411.014 799.016 331.314 927.321 358.18 1025.07C373.937 1082.4 447.903 1115.25 498.992 1130.65C555.026 1147.54 613.044 1148.32 670.535 1138.99C825.36 1113.87 952.701 998.058 1041.28 874.05C1127.18 753.781 1181.83 628.565 1230.05 489.918C1266.64 384.725 1283.79 264.518 1336.84 166.149C1361.65 120.138 1403 52.4459 1463.16 52.4459C1512.67 52.4459 1567.21 99.7033 1597.06 134.98C1657.09 205.924 1661.6 298.812 1665.66 387.3C1669.93 480.519 1663.69 581.641 1653.69 674.411C1642.69 776.615 1607.75 869.41 1568.97 964.047C1531.41 1055.7 1490.08 1104.98 1449.25 1195.19L1447.65 1198.73C1437.41 1221.36 1429.41 1239.03 1411.54 1256.39C1374.66 1292.22 1305.13 1312.68 1279.21 1359.81C1268.12 1379.97 1262.42 1399.47 1262.42 1422.46C1262.42 1449.14 1264.37 1475.33 1265.85 1501.98C1266.77 1518.5 1276.38 1519.39 1284.47 1531.52C1300.06 1554.91 1352.4 1572.23 1377.14 1582.31C1408.54 1595.11 1455.83 1601.59 1483.39 1620.67C1494.5 1628.35 1524.14 1619.66 1537.83 1624.7C1566.95 1635.43 1605.7 1681.64 1635.41 1651.94C1671.65 1615.69 1683.19 1563.5 1709.97 1520.96C1734.52 1481.98 1755.96 1441.18 1782.91 1405.23C1833.37 1337.96 1918.77 1295.95 1978.4 1236.33" stroke="url(#paint0_linear_29_39)" stroke-opacity="0.16" stroke-width="200" stroke-linecap="round"/>
</g>
<defs>
<filter id="filter0_f_29_39" x="-558" y="-500.077" width="3036.4" height="2661.82" filterUnits="userSpaceOnUse" color-interpolation-filters="sRGB">
<feFlood flood-opacity="0" result="BackgroundImageFix"/>
<feBlend mode="normal" in="SourceGraphic" in2="BackgroundImageFix" result="shape"/>
<feGaussianBlur stdDeviation="200" result="effect1_foregroundBlur_29_39"/>
</filter>
<linearGradient id="paint0_linear_29_39" x1="960.2" y1="0" x2="960.2" y2="1661.75" gradientUnits="userSpaceOnUse">
<stop stop-color="#04FB9F"/>
<stop offset="1" stop-color="#0458D8"/>
</linearGradient>
</defs>
</svg>
